<svg width="121" height="110" viewBox="0 0 121 110" fill="none" xmlns="http://www.w3.org/2000/svg">
<g clip-path="url(#clip0_0_1)">
<path d="M57.1597 4.97963L53.6108 6.22862L9.88723 21.6165L6.33829 22.8655C4.61587 23.4738 3.20571 24.7369 2.4172 26.3775C1.62868 28.0182 1.5262 29.9024 2.13224 31.6169L23.1877 90.9693C23.7976 92.6824 25.0658 94.0843 26.7142 94.8673C28.3625 95.6503 30.2563 95.7506 31.9801 95.1461L31.9892 95.1429L82.7923 77.2635L82.8015 77.2602C84.5239 76.6519 85.9341 75.3888 86.7226 73.7482C87.5111 72.1076 87.6136 70.2233 87.0075 68.5088L65.9521 9.15645C65.3422 7.44333 64.0739 6.04147 62.4256 5.25844C60.7773 4.4754 58.8835 4.37514 57.1597 4.97963Z" fill="#F2F2F2"/>
<path d="M57.8197 6.84033L53.6163 8.31968L11.2017 23.2469L6.99828 24.7262C5.7717 25.1594 4.76749 26.0589 4.20596 27.2272C3.64444 28.3956 3.57146 29.7374 4.00303 30.9583L25.0585 90.3107C25.4928 91.5306 26.396 92.5289 27.5698 93.0865C28.7436 93.6441 30.0922 93.7155 31.3197 93.2851L31.3289 93.2818L82.132 75.4024L82.1412 75.3992C83.3678 74.966 84.372 74.0665 84.9335 72.8982C85.495 71.7298 85.568 70.388 85.1364 69.1671L64.0809 9.81475C63.6466 8.59481 62.7435 7.59652 61.5697 7.0389C60.3959 6.48129 59.0473 6.40987 57.8197 6.84033Z" fill="white"/>
<path d="M56.2934 26.7902L30.5934 35.835C30.3064 35.936 29.9908 35.9195 29.7163 35.7891C29.4417 35.6586 29.2305 35.4249 29.1292 35.1395C29.028 34.854 29.0448 34.54 29.1762 34.2667C29.3076 33.9934 29.5426 33.7831 29.8297 33.6821L55.5297 24.6373C55.8167 24.5366 56.132 24.5534 56.4063 24.6839C56.6807 24.8143 56.8917 25.0479 56.9929 25.3332C57.0941 25.6186 57.0773 25.9323 56.9462 26.2055C56.815 26.4787 56.5802 26.689 56.2934 26.7902Z" fill="#F2F2F2"/>
<path d="M62.0467 28.8521L31.8822 39.468C31.5952 39.569 31.2796 39.5525 31.0051 39.4221C30.7305 39.2916 30.5193 39.058 30.418 38.7725C30.3168 38.487 30.3337 38.173 30.465 37.8997C30.5964 37.6264 30.8314 37.4161 31.1185 37.3151L61.283 26.6992C61.57 26.5981 61.8856 26.6147 62.1601 26.7451C62.4347 26.8755 62.6459 27.1092 62.7472 27.3947C62.8484 27.6802 62.8315 27.9941 62.7002 28.2674C62.5688 28.5407 62.3338 28.751 62.0467 28.8521Z" fill="#F2F2F2"/>
<path d="M62.0693 43.0715L36.3692 52.1163C36.2271 52.1663 36.0765 52.188 35.926 52.1801C35.7755 52.1722 35.628 52.1349 35.4921 52.0703C35.3561 52.0058 35.2343 51.9151 35.1336 51.8037C35.0329 51.6922 34.9552 51.5621 34.9051 51.4207C34.8549 51.2794 34.8333 51.1296 34.8413 50.9798C34.8494 50.8301 34.887 50.6833 34.952 50.548C35.0171 50.4127 35.1083 50.2914 35.2204 50.1911C35.3325 50.0908 35.4634 50.0134 35.6055 49.9634L61.3055 40.9186C61.4477 40.8686 61.5983 40.8469 61.7488 40.8548C61.8993 40.8627 62.0467 40.9 62.1827 40.9646C62.3186 41.0292 62.4405 41.1198 62.5412 41.2312C62.6419 41.3427 62.7196 41.4728 62.7697 41.6142C62.8198 41.7555 62.8415 41.9054 62.8334 42.0551C62.8254 42.2049 62.7878 42.3516 62.7227 42.4869C62.6577 42.6222 62.5665 42.7435 62.4544 42.8438C62.3423 42.9441 62.2114 43.0215 62.0693 43.0715Z" fill="#F2F2F2"/>
<path d="M67.8226 45.1333L37.6581 55.7493C37.5159 55.7993 37.3653 55.821 37.2148 55.8131C37.0643 55.8052 36.9169 55.7679 36.7809 55.7034C36.6449 55.6388 36.5231 55.5482 36.4224 55.4367C36.3217 55.3252 36.244 55.1951 36.1939 55.0538C36.1437 54.9124 36.1221 54.7626 36.1301 54.6128C36.1382 54.4631 36.1758 54.3164 36.2409 54.181C36.3059 54.0457 36.3971 53.9244 36.5092 53.8241C36.6213 53.7238 36.7522 53.6464 36.8943 53.5964L67.0588 42.9804C67.3459 42.8794 67.6614 42.8959 67.936 43.0264C68.2106 43.1568 68.4217 43.3905 68.523 43.676C68.6243 43.9615 68.6074 44.2754 68.476 44.5487C68.3447 44.822 68.1096 45.0323 67.8226 45.1333Z" fill="#F2F2F2"/>
<path d="M67.8451 59.3528L42.1451 68.3976C41.8581 68.4984 41.5427 68.4817 41.2683 68.3512C40.9939 68.2207 40.7829 67.9871 40.6817 67.7018C40.5804 67.4164 40.5973 67.1026 40.7285 66.8294C40.8597 66.5562 41.0945 66.3459 41.3813 66.2447L67.0814 57.1999C67.3684 57.0989 67.6839 57.1154 67.9585 57.2459C68.2331 57.3763 68.4443 57.61 68.5455 57.8955C68.6468 58.181 68.6299 58.4949 68.4986 58.7682C68.3672 59.0415 68.1322 59.2518 67.8451 59.3528Z" fill="#F2F2F2"/>
<path d="M73.5984 61.4146L43.4339 72.0306C43.2917 72.0808 43.141 72.1026 42.9904 72.0948C42.8399 72.087 42.6923 72.0498 42.5562 71.9852C42.4202 71.9206 42.2983 71.83 42.1974 71.7185C42.0966 71.607 42.0189 71.4768 41.9688 71.3354C41.9186 71.1939 41.8969 71.044 41.905 70.8942C41.9131 70.7444 41.9508 70.5976 42.0159 70.4622C42.0811 70.3268 42.1724 70.2055 42.2846 70.1052C42.3969 70.0049 42.5279 69.9276 42.6701 69.8777L72.8347 59.2617C73.1217 59.1607 73.4372 59.1772 73.7118 59.3077C73.9864 59.4381 74.1976 59.6718 74.2988 59.9573C74.4001 60.2428 74.3832 60.5567 74.2519 60.83C74.1205 61.1033 73.8855 61.3136 73.5984 61.4146Z" fill="#F2F2F2"/>
<path d="M26.7103 43.1433L17.6153 46.3442C17.4777 46.3925 17.3265 46.3845 17.1948 46.3219C17.0632 46.2594 16.962 46.1475 16.9133 46.0107L14.0568 37.9586C14.0084 37.8217 14.0166 37.6712 14.0795 37.5402C14.1425 37.4092 14.2551 37.3084 14.3926 37.2598L23.4876 34.059C23.6253 34.0107 23.7765 34.0187 23.9081 34.0812C24.0397 34.1437 24.141 34.2557 24.1897 34.3925L27.0462 42.4445C27.0946 42.5814 27.0864 42.7319 27.0234 42.8629C26.9605 42.9939 26.8479 43.0948 26.7103 43.1433Z" fill="#E6E6E6"/>
<path d="M32.4862 59.4246L23.3912 62.6255C23.2535 62.6738 23.1023 62.6657 22.9707 62.6032C22.8391 62.5407 22.7378 62.4288 22.6891 62.292L19.8326 54.2399C19.7842 54.103 19.7924 53.9525 19.8554 53.8215C19.9183 53.6905 20.0309 53.5897 20.1685 53.5411L29.2635 50.3402C29.4011 50.292 29.5523 50.3 29.6839 50.3625C29.8156 50.425 29.9168 50.537 29.9655 50.6738L32.822 58.7258C32.8704 58.8627 32.8622 59.0132 32.7993 59.1442C32.7363 59.2752 32.6237 59.376 32.4862 59.4246Z" fill="#E6E6E6"/>
<path d="M38.262 75.7059L29.167 78.9068C29.0294 78.955 28.8781 78.947 28.7465 78.8845C28.6149 78.822 28.5136 78.71 28.4649 78.5733L25.6084 70.5212C25.56 70.3843 25.5682 70.2338 25.6312 70.1028C25.6942 69.9718 25.8068 69.871 25.9443 69.8224L35.0393 66.6215C35.1769 66.5733 35.3282 66.5813 35.4598 66.6438C35.5914 66.7063 35.6927 66.8182 35.7414 66.955L38.5979 75.0071C38.6463 75.144 38.6381 75.2945 38.5751 75.4255C38.5121 75.5565 38.3995 75.6573 38.262 75.7059Z" fill="#E6E6E6"/>
<path d="M94.7656 17.2014L41.0765 21.8986C39.2563 22.0599 37.5741 22.9329 36.399 24.326C35.2238 25.7192 34.6517 27.5187 34.8081 29.3298L40.2951 92.0463C40.4556 93.857 41.3315 95.5299 42.7307 96.6978C44.1299 97.8657 45.9381 98.4333 47.7586 98.2761L101.448 93.5789C103.268 93.4176 104.95 92.5446 106.125 91.1515C107.3 89.7583 107.873 87.9588 107.716 86.1477L102.229 23.4312C102.069 21.6205 101.193 19.9476 99.7935 18.7797C98.3943 17.6118 96.5861 17.0442 94.7656 17.2014Z" fill="#E6E6E6"/>
<path d="M94.9377 19.1678L41.2485 23.8649C39.9523 23.9798 38.7544 24.6015 37.9175 25.5936C37.0807 26.5856 36.6733 27.8671 36.7846 29.1569L42.2716 91.8733C42.3859 93.1628 43.0097 94.3541 44.0061 95.1858C45.0025 96.0175 46.2902 96.4217 47.5866 96.3097L101.276 91.6125C102.572 91.4976 103.77 90.876 104.607 89.8839C105.444 88.8918 105.851 87.6103 105.74 86.3206L100.253 23.6041C100.138 22.3147 99.5146 21.1234 98.5182 20.2917C97.5218 19.46 96.2341 19.0558 94.9377 19.1678Z" fill="white"/>
<path d="M107.756 100.716C114.678 100.11 119.801 94.037 119.198 87.1507C118.596 80.2643 112.496 75.1728 105.574 75.7784C98.652 76.384 93.5289 82.4574 94.1314 89.3438C94.7339 96.2301 100.834 101.322 107.756 100.716Z" fill="#1C6758"/>
<path d="M112.517 86.0964L108.157 86.4778L107.778 82.1408C107.74 81.7095 107.532 81.3109 107.199 81.0327C106.865 80.7545 106.435 80.6196 106.001 80.6575C105.567 80.6954 105.167 80.9032 104.887 81.235C104.607 81.5668 104.471 81.9956 104.508 82.4269L104.888 86.7639L100.528 87.1453C100.095 87.1832 99.6939 87.3909 99.414 87.7228C99.1341 88.0546 98.9981 88.4833 99.0358 88.9147C99.0735 89.346 99.282 89.7446 99.6153 90.0228C99.9485 90.301 100.379 90.4359 100.813 90.398L105.172 90.0166L105.552 94.3536C105.59 94.7849 105.798 95.1835 106.131 95.4617C106.465 95.7399 106.895 95.8748 107.329 95.8369C107.763 95.799 108.163 95.5913 108.443 95.2594C108.723 94.9276 108.859 94.4989 108.821 94.0675L108.442 89.7305L112.802 89.3491C113.235 89.3112 113.636 89.1035 113.916 88.7717C114.196 88.4398 114.332 88.0111 114.294 87.5797C114.256 87.1484 114.048 86.7498 113.715 86.4716C113.381 86.1934 112.951 86.0585 112.517 86.0964Z" fill="white"/>
<path d="M89.8725 54.3372L62.7223 56.7126C62.572 56.7259 62.4206 56.7096 62.2768 56.6647C62.1329 56.6197 61.9994 56.547 61.8839 56.4507C61.7683 56.3543 61.673 56.2362 61.6034 56.1032C61.5337 55.9701 61.4912 55.8247 61.4781 55.6752C61.465 55.5258 61.4817 55.3752 61.5272 55.232C61.5726 55.0889 61.646 54.9561 61.743 54.8411C61.8401 54.7262 61.959 54.6314 62.0928 54.5622C62.2267 54.4929 62.373 54.4506 62.5232 54.4376L89.6735 52.0623C89.9765 52.0361 90.2775 52.1307 90.5103 52.3252C90.7431 52.5198 90.8887 52.7984 90.9151 53.0998C90.9414 53.4013 90.8465 53.7009 90.651 53.933C90.4555 54.165 90.1755 54.3104 89.8725 54.3372Z" fill="#E6E6E6"/>
<path d="M94.9248 57.7635L63.0581 60.5515C62.9079 60.5648 62.7565 60.5485 62.6126 60.5036C62.4688 60.4587 62.3353 60.3859 62.2197 60.2896C62.1042 60.1933 62.0089 60.0752 61.9392 59.9421C61.8696 59.8091 61.827 59.6637 61.814 59.5142C61.8009 59.3647 61.8176 59.2141 61.863 59.071C61.9085 58.9279 61.9818 58.795 62.0789 58.6801C62.176 58.5651 62.2948 58.4703 62.4287 58.4011C62.5626 58.3319 62.7088 58.2896 62.8591 58.2766L94.7257 55.4886C95.029 55.4621 95.3303 55.5565 95.5633 55.751C95.7964 55.9456 95.9422 56.2244 95.9686 56.526C95.995 56.8277 95.8998 57.1276 95.7041 57.3596C95.5083 57.5917 95.228 57.737 94.9248 57.7635Z" fill="#E6E6E6"/>
<path d="M91.3777 71.5413L64.2274 73.9167C64.0772 73.93 63.9258 73.9137 63.782 73.8688C63.6381 73.8238 63.5046 73.7511 63.389 73.6548C63.2735 73.5584 63.1782 73.4404 63.1085 73.3073C63.0389 73.1743 62.9963 73.0288 62.9833 72.8794C62.9702 72.7299 62.9869 72.5793 63.0323 72.4361C63.0778 72.293 63.1511 72.1602 63.2482 72.0453C63.3453 71.9303 63.4641 71.8355 63.598 71.7663C63.7319 71.697 63.8781 71.6547 64.0284 71.6417L91.1786 69.2664C91.4819 69.2399 91.7832 69.3343 92.0163 69.5288C92.2494 69.7234 92.3951 70.0022 92.4215 70.3038C92.4479 70.6055 92.3528 70.9054 92.157 71.1374C91.9612 71.3695 91.6809 71.5148 91.3777 71.5413Z" fill="#E6E6E6"/>
<path d="M96.4299 74.9676L64.5633 77.7556C64.4131 77.7689 64.2617 77.7526 64.1178 77.7077C63.974 77.6628 63.8404 77.59 63.7249 77.4937C63.6093 77.3974 63.514 77.2793 63.4444 77.1462C63.3748 77.0132 63.3322 76.8678 63.3191 76.7183C63.3061 76.5688 63.3227 76.4182 63.3682 76.2751C63.4136 76.132 63.487 75.9991 63.5841 75.8842C63.6811 75.7692 63.8 75.6744 63.9339 75.6052C64.0677 75.536 64.214 75.4937 64.3643 75.4807L96.2309 72.6927C96.3811 72.6794 96.5325 72.6957 96.6764 72.7406C96.8202 72.7856 96.9538 72.8583 97.0693 72.9546C97.1849 73.0509 97.2802 73.169 97.3498 73.3021C97.4194 73.4351 97.462 73.5806 97.475 73.73C97.4881 73.8795 97.4715 74.0301 97.426 74.1732C97.3805 74.3164 97.3072 74.4492 97.2101 74.5641C97.1131 74.6791 96.9942 74.7739 96.8603 74.8431C96.7264 74.9123 96.5802 74.9547 96.4299 74.9676Z" fill="#E6E6E6"/>
<path d="M57.1288 62.8263L47.5206 63.6669C47.3752 63.6795 47.2308 63.6341 47.1191 63.5409C47.0074 63.4476 46.9374 63.314 46.9246 63.1695L46.1802 54.661C46.1677 54.5164 46.2134 54.3727 46.3073 54.2614C46.4011 54.1502 46.5354 54.0805 46.6808 54.0676L56.289 53.227C56.4343 53.2145 56.5787 53.2598 56.6904 53.353C56.8022 53.4463 56.8721 53.5799 56.8849 53.7245L57.6293 62.2329C57.6418 62.3775 57.5961 62.5212 57.5023 62.6325C57.4085 62.7437 57.2741 62.8134 57.1288 62.8263Z" fill="#E6E6E6"/>
<path d="M58.6339 80.0304L49.0257 80.871C48.8804 80.8836 48.736 80.8383 48.6243 80.745C48.5125 80.6517 48.4426 80.5182 48.4298 80.3736L47.6854 71.8651C47.6729 71.7205 47.7186 71.5768 47.8124 71.4656C47.9063 71.3543 48.0406 71.2846 48.1859 71.2717L57.7941 70.4311C57.9395 70.4186 58.0839 70.4639 58.1956 70.5571C58.3073 70.6504 58.3773 70.784 58.3901 70.9286L59.1345 79.437C59.147 79.5816 59.1013 79.7253 59.0075 79.8366C58.9136 79.9478 58.7793 80.0175 58.6339 80.0304Z" fill="#E6E6E6"/>
<path d="M88.2271 35.183L68.2103 36.9343C67.9071 36.9608 67.6058 36.8664 67.3727 36.6718C67.1396 36.4773 66.9938 36.1985 66.9674 35.8968C66.941 35.5952 67.0362 35.2953 67.232 35.0632C67.4277 34.8311 67.7081 34.6859 68.0113 34.6593L88.0281 32.9081C88.3313 32.8816 88.6326 32.976 88.8657 33.1705C89.0988 33.3651 89.2445 33.6438 89.2709 33.9455C89.2973 34.2472 89.2022 34.5471 89.0064 34.7791C88.8107 35.0112 88.5303 35.1565 88.2271 35.183Z" fill="#CCCCCC"/>
<path d="M93.2793 38.6093L68.5462 40.7732C68.396 40.7863 68.2448 40.7699 68.1011 40.7249C67.9573 40.6799 67.824 40.6071 67.7086 40.5108C67.5931 40.4144 67.498 40.2964 67.4284 40.1634C67.3589 40.0305 67.3164 39.8851 67.3033 39.7358C67.2902 39.5864 67.3069 39.4359 67.3523 39.2929C67.3976 39.1498 67.4709 39.0171 67.5678 38.9022C67.6648 38.7872 67.7835 38.6924 67.9172 38.6231C68.0509 38.5538 68.197 38.5114 68.3472 38.4983L93.0803 36.3344C93.3836 36.3079 93.6849 36.4023 93.9179 36.5968C94.151 36.7914 94.2968 37.0701 94.3232 37.3718C94.3496 37.6735 94.2544 37.9734 94.0587 38.2054C93.8629 38.4375 93.5826 38.5828 93.2793 38.6093Z" fill="#CCCCCC"/>
<path d="M64.5232 45.8131L46.0695 47.4276C45.9241 47.4401 45.7797 47.3948 45.668 47.3016C45.5563 47.2083 45.4863 47.0747 45.4735 46.9301L44.22 32.6025C44.2075 32.4578 44.2532 32.3141 44.347 32.2029C44.4409 32.0917 44.5752 32.022 44.7205 32.0091L63.1742 30.3946C63.3196 30.382 63.464 30.4273 63.5757 30.5206C63.6874 30.6139 63.7574 30.7474 63.7702 30.892L65.0237 45.2197C65.0362 45.3643 64.9905 45.508 64.8967 45.6193C64.8028 45.7305 64.6685 45.8002 64.5232 45.8131Z" fill="#1C6758"/>
</g>
<defs>
<clipPath id="clip0_0_1">
<rect width="112" height="100" fill="white" transform="translate(0 9.76144) rotate(-5)"/>
</clipPath>
</defs>
</svg>
