<svg width="69" height="74" viewBox="0 0 69 74" fill="none" xmlns="http://www.w3.org/2000/svg">
<path d="M52.5806 74C52.1825 74 51.7801 73.9686 51.3758 73.9052L6.59403 66.8458C4.4981 66.5149 2.6684 65.3759 1.44109 63.6373C0.213778 61.8992 -0.25179 59.787 0.130026 57.6911L9.47233 6.42676C10.2347 2.25127 14.101 -0.527782 18.2828 0.0844151L62.3353 6.60885C64.4243 6.9184 66.2597 8.03354 67.5026 9.74895C68.7462 11.4637 69.2392 13.5609 68.8911 15.6537L60.2781 67.4536C59.6445 71.2687 56.3206 74 52.5806 74Z" fill="#F7FDFC"/>
<path d="M54.7395 29C54.6019 29 54.4624 28.9875 54.3222 28.9614L18.8482 22.4303C17.6196 22.2041 16.8096 21.0382 17.0388 19.8255C17.2673 18.6129 18.446 17.8084 19.6778 18.0396L55.1518 24.5707C56.3804 24.7969 57.1904 25.9628 56.9612 27.1755C56.7586 28.2497 55.8077 29 54.7395 29Z" fill="#1C6758"/>
<path d="M51.6545 41C51.5483 41 51.4421 40.9931 51.334 40.9772L16.0316 35.9195C14.7466 35.7355 13.8468 34.4904 14.0218 33.1377C14.1974 31.785 15.3848 30.8377 16.666 31.0232L51.9684 36.0809C53.2534 36.265 54.1532 37.5101 53.9782 38.8627C53.8177 40.1017 52.8104 41 51.6545 41Z" fill="#1C6758"/>
<path d="M37.6994 53C37.5773 53 37.4533 52.989 37.3287 52.9676L13.935 48.9074C12.6795 48.6897 11.8269 47.4211 12.0299 46.0746C12.2336 44.7281 13.4081 43.8164 14.6713 44.0314L38.065 48.0916C39.3205 48.3093 40.1731 49.5779 39.9701 50.9244C39.787 52.1373 38.8097 53 37.6994 53Z" fill="#1C6758"/>
</svg>
