<svg width="468" height="300" viewBox="0 0 468 300" fill="none" xmlns="http://www.w3.org/2000/svg">
<path d="M65.4069 192.19C44.347 196.279 41.184 166.285 50.1172 157.892C59.0504 149.499 85.6927 143.073 89.4964 149.807C91.0132 152.493 90.836 159.128 88.7412 166.394L115.468 155.024L121.68 178.206L82.3406 180.193C78.3088 186.043 72.7154 190.771 65.4069 192.19Z" fill="#B28B67"/>
<path fill-rule="evenodd" clip-rule="evenodd" d="M61.2339 204.141C60.6925 205.088 59.7429 205.78 58.8319 206.403C57.8855 207.05 56.9256 207.689 55.9036 208.224C53.8614 209.293 51.3641 209.967 49.2618 208.869C47.5759 207.989 46.4694 206.286 45.8763 204.601C45.4811 203.477 45.3261 202.256 45.3929 201.06C45.4592 199.874 45.9218 198.742 46.082 197.566C43.7299 198.153 41.1726 198.408 38.8553 197.756C36.6256 197.128 35.0579 195.595 34.2163 193.596C33.3525 191.545 33.2873 189.308 33.8076 187.125C33.9379 186.578 34.0817 186.033 34.2667 185.498C34.4215 185.05 34.6248 184.573 34.6099 184.101C34.5935 183.574 34.2413 183.405 33.7933 183.179C33.268 182.915 32.7805 182.59 32.3287 182.228C30.3312 180.629 29.0292 178.177 29.2884 175.635C29.4078 174.464 29.8174 173.246 30.5702 172.271C31.2413 171.402 32.4561 170.585 32.8059 169.541C32.9545 169.097 32.5528 168.92 32.2167 168.643C31.7117 168.226 31.1752 167.843 30.6786 167.418C29.9809 166.82 29.3934 166.128 28.9696 165.332C28.3492 164.166 27.9565 162.431 29.4887 161.64C30.0643 161.343 30.7454 161.27 31.3729 161.148C32.2344 160.98 33.0964 160.816 33.9606 160.663C34.6167 160.547 35.2548 160.451 35.9169 160.403C36.2698 160.378 36.9497 160.412 37.2472 160.178C37.6191 159.886 37.1579 159.12 37.0774 158.761C36.9187 158.053 36.853 157.317 36.9788 156.589C37.0763 156.025 37.2761 155.406 37.7947 155.04C38.1132 154.815 38.4854 154.752 38.8655 154.716C39.3217 154.673 39.5305 154.526 39.956 154.353C39.2407 153.536 37.3378 150.552 38.9139 149.69C39.4388 149.403 40.1564 149.544 40.6935 149.655C41.6354 149.848 42.5407 150.19 43.414 150.554C45.2358 151.313 46.9104 152.353 48.4248 153.549C48.734 151.59 50.9077 150.517 52.6819 151.667C53.4652 152.174 53.8408 153.038 54.0284 153.893C54.0971 154.206 54.0977 154.683 54.2167 154.912C54.2807 155.035 54.4291 155.145 54.4901 155.323C54.891 156.493 54.9643 157.915 55.012 159.151C55.097 161.353 54.6402 163.581 53.5725 165.587C53.2986 166.102 53.1686 166.501 53.3227 167.054C53.4577 167.538 53.7185 167.979 53.8607 168.46C54.2374 169.735 53.92 171.06 53.8218 172.364C55.4513 172.006 57.3474 171.989 58.9723 172.259C60.2974 172.48 60.7696 173.556 61.1685 174.63C62.4444 178.065 63.022 181.701 63.9724 185.228C63.8293 181.606 63.2017 177.991 63.2031 174.362C63.2037 172.721 64.5482 173.614 65.4385 174.076C66.9047 174.838 68.5781 175.249 70.2639 175.392C68.5335 177.647 67.8897 180.985 69.26 183.422C70.7739 186.116 75.2293 187.104 77.5448 184.502C78.8889 182.991 78.9995 180.884 79.2684 179.083C80.9137 179.991 82.9272 179.778 84.7575 180.099C85.6602 180.257 86.7081 180.539 87.2116 181.299C87.3979 181.58 87.5039 181.94 87.8211 182.117C88.2139 182.335 88.5819 182.313 88.9533 182.627C90.4356 183.88 90.9973 186.306 89.9665 188.044C89.0343 189.616 86.9501 189.83 85.3938 189.143C85.1496 190.966 85.071 194.189 82.3414 194.222C83.0576 197.839 79.6062 208.011 74.1169 204.37C73.3389 207.384 70.368 210.758 66.7306 209.93C63.9297 209.293 62.026 206.576 61.2339 204.141Z" fill="black"/>
<path fill-rule="evenodd" clip-rule="evenodd" d="M229 172L298 111L327.5 152H349.5L311.593 89.8641C305.772 80.322 293.26 77.4032 283.817 83.3847L229 118.109V172Z" fill="#195C4F"/>
<path fill-rule="evenodd" clip-rule="evenodd" d="M325 174.823L326.096 151.816L349.103 151.816C365.467 163.32 391.831 170.441 391.831 170.441V174.823H350.198L335.956 172.632V174.823H325Z" fill="black"/>
<path fill-rule="evenodd" clip-rule="evenodd" d="M229 181.696C294.574 182.534 330.34 185.394 336.298 186.274C342.256 187.155 380.156 200.468 450 226.214V206.227C382.997 173.451 345.096 155.154 336.298 151.337C327.5 147.521 291.734 135.741 229 118V181.696Z" fill="#1C6758"/>
<path fill-rule="evenodd" clip-rule="evenodd" d="M468 228L447 227L447 206C457.5 191.064 464 167 464 167H468V205L466 218H468V228Z" fill="black"/>
<path fill-rule="evenodd" clip-rule="evenodd" d="M143.561 130.5L131.042 93.7918C126.576 86.0236 123.518 78.8588 121.871 72.2975C121.785 70.4445 122.402 67.4836 126.114 71.8137C129.826 76.1439 133.924 80.5316 135.851 79.7149C137.777 78.8983 136.984 74.8249 139.956 74.0959C141.937 73.6099 142.376 80.2356 141.273 93.9729L154.347 125.571L143.561 130.5Z" fill="#997659"/>
<path fill-rule="evenodd" clip-rule="evenodd" d="M179.74 49.4625L171.364 34.216C171.364 34.216 159.154 31.007 159.077 26.5442C158.014 24.2586 168.3 28.2389 167.408 23.9061C166.516 19.5733 158.651 8.99824 160.248 7.17609C162.61 4.48035 169.864 6.88404 173.473 9.71616C180.218 15.0094 182.524 19.392 185.544 30.2241C187.913 38.7196 195.04 48.5943 195.04 48.5943L179.74 49.4625Z" fill="#997659"/>
<path fill-rule="evenodd" clip-rule="evenodd" d="M143.501 153.129C143.362 140.002 140.589 122.496 128.733 103.818L145.092 96.4827C157.878 109.367 168.383 127.483 167.938 143.323C167.588 155.806 152.488 162.186 143.501 153.129Z" fill="#26E5BC"/>
<path d="M104.5 155.5C126.849 153.761 151.632 138.375 175.681 126.248C176.755 124.727 177.579 123.205 178.099 121.693C184.563 102.872 167.423 54.6519 167.373 54.5112C167.373 54.5112 190.758 43.2074 200.717 44.06C214.489 70.4247 220.66 92.9249 221.114 111.37C227.513 111.194 233.669 112.258 239.5 115C259.018 124.18 241.549 166.956 245.106 185.028C208.352 196.345 193.414 174.462 169.896 174.445C144.143 174.426 104.502 185.042 104.5 182V155.5Z" fill="#81F1D9"/>
<rect width="64.4121" height="4.65046" transform="matrix(0.436257 -0.899822 0.912113 0.409939 133.017 72.1856)" fill="#1C6758"/>
<rect width="55.8238" height="7.75076" transform="matrix(0.436257 -0.899822 0.912113 0.409939 128.445 63.8564)" fill="white"/>
<rect width="64.4121" height="4.65046" transform="matrix(0.436257 -0.899822 0.912113 0.409939 121.706 67.1019)" fill="#1C6758"/>
<rect width="5.72552" height="7.75076" transform="matrix(0.436257 -0.899822 0.912113 0.409939 125.947 69.0083)" fill="#1C6758"/>
</svg>
