<svg width="218" height="218" viewBox="0 0 218 218" fill="none" xmlns="http://www.w3.org/2000/svg">
<circle cx="109" cy="109" r="107.5" stroke="#1C6758" stroke-width="3"/>
<mask id="mask0_0_1" style="mask-type:alpha" maskUnits="userSpaceOnUse" x="3" y="3" width="212" height="212">
<circle cx="109" cy="109" r="106" fill="white"/>
</mask>
<g mask="url(#mask0_0_1)">
<path fill-rule="evenodd" clip-rule="evenodd" d="M52 212L101.082 336.227L134.001 441.25H147L96.6737 212L52 212Z" fill="#997659"/>
<path fill-rule="evenodd" clip-rule="evenodd" d="M42.1166 212C41.594 255.654 33.9718 314.427 32.7541 317.149C31.5363 319.87 -51.3241 386.358 -51.3241 386.358L-42.3709 395.939C-42.3709 395.939 55.3967 338.934 59.9209 331.331C64.4451 323.728 79.1744 253.763 91 212H42.1166Z" fill="#B28B67"/>
<path fill-rule="evenodd" clip-rule="evenodd" d="M85 430.433L146.804 423.725L101 212H45.6441L85 430.433Z" fill="#195C4F"/>
<path fill-rule="evenodd" clip-rule="evenodd" d="M-38.54 370.9L2 418.886C2 418.886 66.0499 348.932 76.6826 327.596C87.3152 306.26 95.7989 212 95.7989 212H33.4781C33.4781 212 28.8439 294.926 27.2305 298.785C25.6172 302.644 -38.54 370.9 -38.54 370.9Z" fill="#1C6758"/>
<path d="M81.9629 44.4712C88.2887 44.4712 93.7674 48.0945 96.4395 53.3784C96.7704 53.9177 97.1085 54.7024 97.4561 55.7866C99.9603 63.5979 103.976 87.1659 100.423 90.6411H79.5254C79.5215 90.5741 79.5192 90.5073 79.5156 90.4409C71.7227 89.2608 65.75 82.5339 65.75 74.4116V60.684C65.7502 51.73 73.0088 44.4713 81.9629 44.4712Z" fill="black"/>
<path d="M68.6735 58.1915C69.7555 42.7586 91.2212 46.1533 95.3971 53.9425C99.5728 61.7317 99.0769 81.4895 93.6803 82.8819C91.5278 83.4372 86.9429 82.0754 82.276 79.2599L85.2057 100H67.9118L73.8659 72.2267C70.5459 68.3263 68.2981 63.5474 68.6735 58.1915Z" fill="#B28B67"/>
<path d="M81.6037 45.1923C89.9478 45.1923 92.5819 49.0779 94.8244 52.3769C93.1474 58.1355 86.6403 58.9904 80.8576 62.58C80.176 62.0256 79.3073 61.6924 78.3605 61.6923C76.1717 61.6923 74.3967 63.4686 74.3967 65.6591C74.3968 67.8496 76.1718 69.6249 78.3605 69.6249C78.4195 69.6249 78.478 69.6226 78.5363 69.62C79.334 78.1862 79.0176 87.9688 76.6428 90.2909H55.7463C54.5821 70.0459 65.8341 77.8855 65.8342 58.8241C66.5354 58.1384 67.198 57.4593 67.8537 56.8739L67.8312 56.3134C67.8312 56.3134 73.2594 45.1926 81.6037 45.1923Z" fill="black"/>
<path d="M167.821 126.783C169.776 125.869 166.371 134.723 170.077 133.955C173.783 133.187 182.83 126.416 184.39 127.79C186.696 129.824 184.639 136.07 182.217 139.177C177.689 144.984 173.939 146.97 164.673 149.571C157.436 151.601 149.028 157.694 148.958 157.745L148.215 144.573L161.258 137.362C161.267 137.327 164.01 126.849 167.821 126.783ZM145.998 100.647C147.462 100.031 150.024 99.6589 147.629 103.937C145.234 108.215 142.906 112.823 144.126 114.141C145.346 115.459 148.388 113.618 149.844 115.808C150.814 117.268 145.617 119.573 134.251 122.726L112.675 142.608L101.71 130.763L131.403 114.396C136.341 108.495 141.206 103.912 145.998 100.647Z" fill="#997659"/>
<path fill-rule="evenodd" clip-rule="evenodd" d="M87.2491 127.117C97.6495 127.007 111.519 124.796 126.317 115.342L132.129 128.386C121.921 138.581 107.568 146.958 95.0184 146.603C85.1285 146.323 80.0739 134.284 87.2491 127.117Z" fill="#26E5BC"/>
<path d="M87.9415 94C89.271 111.19 94.011 129.004 98.1954 146.989C98.5626 147.171 98.9399 147.331 99.3282 147.465C115.429 153.03 156.676 138.275 156.8 138.23C156.8 138.23 166.47 158.365 165.74 166.938C141.596 179.631 121.189 184.706 104.746 184.215C105.505 193.113 105.464 201.977 104.136 210.752C84.9999 221 50.3021 211.993 34.8419 215.057C25.1602 183.412 43.8805 170.552 43.8956 150.304C43.9123 128.13 61.6021 94.0006 64.2052 94H87.9415Z" fill="#81F1D9"/>
<path d="M176.783 134C178.528 134 180.062 131.594 180.398 129.197L183.932 80.1812C184.139 78.7021 183.866 77.1814 183.183 76.009C182.5 74.8372 181.485 74.146 180.398 74.1137L151.866 60.0014C150.048 59.9441 148.507 61.6921 148.171 64.1497L142.064 108.792C141.867 110.237 142.129 111.729 142.784 112.886C143.438 114.043 144.422 114.752 145.481 114.832L176.584 133.992C176.651 133.997 176.783 134 176.783 134Z" fill="#F7FDFC"/>
<path d="M172.142 127.671L175.136 103.525L161.023 107.722L160.5 102L145.332 111.891L172.142 127.671Z" fill="#1C6758"/>
<path d="M153.19 78.9626C154.286 79.5958 155.881 78.8943 156.745 77.3986C157.608 75.9029 157.418 74.1712 156.321 73.5379C155.225 72.9047 153.63 73.6062 152.766 75.1019C151.903 76.5975 152.093 78.3293 153.19 78.9626Z" fill="#1C6758"/>
</g>
</svg>
