<svg viewBox="0 0 150 150" fill="none" xmlns="http://www.w3.org/2000/svg">
<circle cx="75" cy="75" r="73.5" stroke="#195C4F" stroke-width="3"/>
<mask id="mask0_0_1" style="mask-type:alpha" maskUnits="userSpaceOnUse" x="3" y="3" width="144" height="144">
<path d="M147 75C147 114.765 114.765 147 75 147C35.2355 147 3 114.765 3 75C3 35.2355 35.2355 3 75 3C114.765 3 147 35.2355 147 75Z" fill="white"/>
</mask>
<g mask="url(#mask0_0_1)">
<path fill-rule="evenodd" clip-rule="evenodd" d="M62.4 109.633L88.8449 179.564L107.381 231.106H117.95L92.4705 109.633L62.4 109.633Z" fill="#195C4F"/>
<path fill-rule="evenodd" clip-rule="evenodd" d="M55.8641 109.633C55.5767 133.627 55.7845 165.932 55.1147 167.428C54.445 168.924 13.45 201.511 13.45 201.511L18.8977 210.769C18.8977 210.769 67.5682 179.402 70.0565 175.223C72.5448 171.044 85.0459 132.588 91.55 109.633H55.8641Z" fill="#1C6758"/>
<path d="M62.9811 28.298C63.8069 16.5352 80.1912 19.1229 83.3785 25.0597C86.5657 30.9966 86.1871 46.0562 82.068 47.1173C80.4249 47.5404 76.9258 46.5015 73.3639 44.3556L75.6002 60.1642H62.4L66.9439 38.9952C64.4101 36.0225 62.6945 32.38 62.9811 28.298Z" fill="#B28B67"/>
<path fill-rule="evenodd" clip-rule="evenodd" d="M65.93 41.6448C64.2733 34.2788 59.5535 29.2577 60.2743 25.9655C60.9951 22.6732 64.1167 21.8708 64.1167 21.8708C64.1167 21.8708 65.7312 15.3437 74.5306 16.3183C83.33 17.293 88.7007 20.945 86.3814 28.981C84.2494 28.981 81.6756 28.2104 78.1165 29.5306C76.4227 30.159 75.6935 33.4277 75.6935 33.4277H74.0852C74.0852 33.4277 71.7438 29.5486 69.4679 30.5768C67.1921 31.605 68.4333 35.5717 68.4333 35.5717L67.641 41.6448H65.93Z" fill="black"/>
<path d="M48.7633 100.345C48.7633 100.345 38.1176 134.688 37.2692 136.789C35.9967 139.941 38.6898 144.741 39.8415 147.321C36.0907 148.998 36.4902 142.786 31.7584 144.986C27.4395 146.994 24.1537 150.632 19.1637 147.555C18.5504 147.177 17.8789 145.753 19.5026 144.64C23.5494 141.867 29.3807 137.013 30.1686 135.416C31.7793 132.15 37.2619 100.342 37.2692 100.3L48.7633 100.345ZM122.173 112.73C126.932 114.013 130.908 115.61 134.1 117.519C134.854 118.206 135.766 119.597 132.638 119.356C129.511 119.116 126.211 119.004 125.779 120.07C125.347 121.136 127.239 122.411 126.367 123.849C125.785 124.808 123.038 122.404 118.125 116.636L100.752 109.436L104.63 99.8553L122.173 112.73Z" fill="#B28B67"/>
<path fill-rule="evenodd" clip-rule="evenodd" d="M69.9322 52.1017L74.6882 51.2864C92.334 66.5203 99.5818 95.7864 121.211 111.29L116.005 117.739C78.4821 113.096 69.1816 77.3983 69.9322 52.1017Z" fill="#26E5BC"/>
<path fill-rule="evenodd" clip-rule="evenodd" d="M49.2 111.831C49.2 111.831 77.8042 111.831 91.2813 111.831C93.2042 111.831 92.8419 109.057 92.5639 107.656C89.3558 91.4963 76.8327 74.0765 76.8327 51.0731L64.6945 49.1709C54.6546 65.3079 51.1827 85.1757 49.2 111.831Z" fill="#DDE3E9"/>
<path d="M47.2574 47.6365C51.9985 46.1888 56.2269 49.1707 63.7808 49.1707C64.1021 49.1707 64.395 49.193 64.6617 49.2332L68.7095 49.4647C68.7095 49.4647 85.0628 104.853 77.73 123.374H44.4673C42.5761 127.913 40.7226 131.874 38.9752 134.917H29.9498C28.9788 103.541 40.8674 79.3992 50.815 64.8426C48.6054 64.6854 46.6108 63.7623 45.3502 61.4891C40.9138 53.4889 42.5162 49.0844 47.2574 47.6365Z" fill="#81F1D9"/>
<path d="M51.9433 103.285C52.8548 111.192 54.3727 119.134 56.9003 123.374H44.4657C46.9475 117.417 49.4943 110.466 51.9433 103.285Z" fill="black" fill-opacity="0.1"/>
</g>
</svg>
