<svg width="807" height="514" viewBox="0 0 807 514" fill="none" xmlns="http://www.w3.org/2000/svg">
<g clip-path="url(#clip0_0_1)">
<path d="M490.221 350.655H461.551C459.148 350.643 456.82 349.816 454.948 348.308C453.077 346.8 451.773 344.701 451.251 342.355C450.864 340.557 450.952 338.689 451.506 336.936C452.061 335.182 453.063 333.603 454.414 332.355L541.836 251.89C543.188 250.643 544.977 249.981 546.815 250.046L574.569 251.003C575.921 251.051 577.23 251.491 578.337 252.267C579.445 253.044 580.304 254.125 580.81 255.38C581.316 256.634 581.448 258.009 581.189 259.337C580.931 260.665 580.293 261.889 579.353 262.862L497.171 347.712C496.267 348.641 495.188 349.379 493.995 349.884C492.801 350.39 491.519 350.651 490.224 350.654L490.221 350.655Z" fill="#090814"/>
<path d="M488.624 343.44C488.47 343.439 488.317 343.428 488.165 343.407L460.719 339.564C460.097 339.477 459.512 339.217 459.031 338.813C458.55 338.409 458.192 337.878 457.999 337.281C457.805 336.683 457.784 336.043 457.937 335.434C458.09 334.825 458.411 334.271 458.864 333.836L540.875 255.042C541.53 254.432 542.394 254.098 543.289 254.109L572.208 254.939C572.865 254.958 573.501 255.169 574.039 255.547C574.576 255.925 574.99 256.452 575.23 257.064C575.469 257.676 575.524 258.344 575.386 258.987C575.248 259.629 574.924 260.216 574.455 260.676L490.974 342.484C490.345 343.095 489.503 343.437 488.626 343.439L488.624 343.44Z" fill="#1C6758"/>
<path d="M528.454 280.921C528.631 281.03 528.677 281.471 528.718 281.705C528.805 282.192 529.372 291.484 529.349 292.026C529.382 292.311 529.352 292.6 529.26 292.872C529.168 293.144 529.017 293.392 528.818 293.599C528.619 293.805 528.376 293.965 528.108 294.067C527.84 294.169 527.552 294.21 527.266 294.187C526.732 294.214 517.754 293.703 517.08 293.607C515.991 293.453 515.49 293.007 516.717 291.558C517.717 290.374 525.028 283.341 526.958 281.31C527.15 281.117 527.391 280.979 527.655 280.91C527.919 280.842 528.196 280.845 528.458 280.921H528.454Z" fill="#1C6758"/>
<path d="M556.381 229.55L553.397 222.85H544.146C536.853 222.85 529.858 219.953 524.701 214.795C519.543 209.638 516.646 202.644 516.646 195.35C516.646 188.057 519.543 181.062 524.701 175.905C529.858 170.747 536.853 167.85 544.146 167.85H763.146C770.439 167.85 777.434 170.747 782.591 175.905C787.749 181.062 790.646 188.057 790.646 195.35C790.646 202.644 787.749 209.638 782.591 214.795C777.434 219.953 770.439 222.85 763.146 222.85H588.775L565.075 233.402C564.325 233.734 563.514 233.905 562.694 233.902C561.335 233.859 560.017 233.425 558.898 232.653C557.779 231.882 556.905 230.805 556.381 229.55Z" fill="#195C4F"/>
<path d="M406.5 81.421H625.5C632.793 81.421 639.788 84.3183 644.945 89.4756C650.103 94.6328 653 101.628 653 108.921C653 116.214 650.103 123.209 644.945 128.366C639.788 133.524 632.793 136.421 625.5 136.421H406.5C399.207 136.421 392.212 133.524 387.055 128.366C381.897 123.209 379 116.214 379 108.921C379 101.628 381.897 94.6328 387.055 89.4756C392.212 84.3183 399.207 81.421 406.5 81.421Z" fill="#81F1D9"/>
<path d="M550.174 -5H769.174C776.467 -5 783.462 -2.10269 788.619 3.05456C793.777 8.21181 796.674 15.2065 796.674 22.5C796.674 29.7935 793.777 36.7882 788.619 41.9454C783.462 47.1027 776.467 50 769.174 50H550.174C542.88 50 535.886 47.1027 530.729 41.9454C525.571 36.7882 522.674 29.7935 522.674 22.5C522.674 15.2065 525.571 8.21181 530.729 3.05456C535.886 -2.10269 542.88 -5 550.174 -5Z" fill="#195C4F"/>
<g clip-path="url(#clip1_0_1)">
<path d="M240.492 171.07C243.333 130.585 299.707 139.491 310.672 159.924C321.637 180.357 320.335 232.187 306.163 235.841C300.511 237.298 288.47 233.725 276.215 226.34L283.908 280.745H238.492L254.128 207.887C245.409 197.656 239.507 185.12 240.492 171.07Z" fill="#B28B67"/>
<path fill-rule="evenodd" clip-rule="evenodd" d="M250.637 217.006C244.938 191.654 228.7 174.373 231.179 163.042C233.659 151.71 244.398 148.949 244.398 148.949C244.398 148.949 249.954 126.484 280.229 129.838C310.504 133.193 328.981 145.762 321.001 173.42C313.666 173.42 304.81 170.768 292.567 175.312C286.739 177.474 284.229 188.725 284.229 188.725H278.696C278.696 188.725 270.641 175.374 262.81 178.913C254.98 182.451 259.251 196.104 259.251 196.104L256.524 217.006H250.637Z" fill="black"/>
<path fill-rule="evenodd" clip-rule="evenodd" d="M208.215 505.866L299.201 746.551L362.974 923.948H399.338L311.675 505.866H208.215Z" fill="#195C4F"/>
<path fill-rule="evenodd" clip-rule="evenodd" d="M185.729 505.866C184.739 588.449 185.455 699.635 183.15 704.784C180.845 709.932 39.8 822.089 39.8 822.089L58.5434 853.952C58.5434 853.952 225.997 745.996 234.558 731.613C243.119 717.23 286.129 584.872 308.508 505.866H185.729Z" fill="#1C6758"/>
<path d="M478.368 327.63C482.694 325.619 473.803 347.186 482 345.5C502 348.5 511.57 326.824 515.018 329.845C520.12 334.315 515.573 348.038 510.212 354.864C500.196 367.624 491.904 371.988 471.406 377.701C455.384 382.168 436.769 395.573 436.644 395.664L435 366.72L463.85 350.874C463.865 350.817 469.934 327.776 478.368 327.63Z" fill="#997659"/>
<path d="M292.506 242.909C295.142 276.762 299.748 313.601 305.045 350.387C308.549 355.167 312.724 358.68 317.693 360.386C353.361 372.632 444.822 340.095 444.822 340.095C444.822 340.095 466.213 384.334 464.598 403.175C405.823 433.867 357.059 444.289 318.976 440.446C322.322 461.269 325.535 481.157 328.328 499.445C310.958 536.369 209.247 502.175 175.047 508.904C175.047 508.904 195.041 411.114 195.073 366.624C195.111 317.905 234.24 242.914 240 242.909H292.506Z" fill="#81F1D9"/>
</g>
</g>
<defs>
<clipPath id="clip0_0_1">
<rect width="806.639" height="513.393" fill="white"/>
</clipPath>
<clipPath id="clip1_0_1">
<rect width="615" height="874" fill="white" transform="translate(-34 84)"/>
</clipPath>
</defs>
</svg>
