<svg width="541" height="568" viewBox="0 0 541 568" fill="none" xmlns="http://www.w3.org/2000/svg">
<path d="M129.003 117.282C130.459 96.5361 159.342 101.1 164.96 111.571C170.578 122.042 169.911 148.602 162.65 150.474C159.754 151.22 153.585 149.39 147.306 145.605L151.247 173.485H127.978L135.99 136.149C131.522 130.906 128.498 124.482 129.003 117.282Z" fill="#B28B67"/>
<path fill-rule="evenodd" clip-rule="evenodd" d="M155.768 100.167C152.589 99.1971 147.973 98.8683 146.032 99.0908C147.136 96.4447 147.575 93.4968 147.218 90.6265C146.87 87.8374 145.624 85.4626 144.471 82.9741C143.94 81.827 143.338 80.6862 142.44 79.8089C141.525 78.915 140.367 78.325 139.153 78.0435C137.911 77.7554 136.612 77.7794 135.368 78.0408C134.818 78.1565 134.324 78.4081 133.784 78.548C133.231 78.6913 132.963 78.3454 132.561 77.9977C131.595 77.16 130.177 76.7464 128.954 76.5984C127.581 76.4324 126.157 76.6394 124.848 77.0906C123.574 77.5297 122.35 78.2429 121.429 79.2819C121.019 79.7444 120.647 80.2708 120.405 80.852C120.306 81.0905 120.289 81.2317 120.051 81.3192C119.831 81.4 119.574 81.4023 119.346 81.4793C117.15 82.2232 115.271 83.9205 114.248 86.0996C113.652 87.3709 113.37 89.6093 113.446 92.118C113.524 94.6268 115.79 101.173 117.908 103.561C119.8 105.692 122.58 107.098 125.263 107.714C123.482 109.749 122.297 112.293 121.42 114.879C120.468 117.689 119.878 120.609 119.661 123.583C119.454 126.41 119.435 129.398 120.097 132.164C120.718 134.751 122.043 136.873 124.256 138.219C125.27 138.836 126.36 139.299 127.458 139.722C128.539 140.14 129.623 140.545 130.755 140.779C132.899 141.222 135.368 141.146 137.019 139.44C137.615 138.825 138.269 138.053 138.703 137.302C138.859 137.031 138.954 136.855 138.764 136.591C138.537 136.274 138.169 136.032 137.877 135.785C136.213 134.374 135.182 132.491 134.923 130.253C134.66 127.982 135.269 125.051 137.477 124.06C140.202 122.837 143.204 124.241 145.627 125.55C146.657 121.917 148.77 118.645 152.084 116.979C155.751 115.135 159.959 114.919 163.726 113.337C164.708 112.925 165.708 112.457 166.431 111.617C166.734 111.266 167.088 110.811 167.209 110.347C167.367 109.737 166.973 109.225 166.67 108.75C165.058 106.229 158.948 101.136 155.768 100.167Z" fill="black"/>
<path d="M99.7331 227.319C99.641 227.527 64.8144 305.892 63.3185 309.598C61.075 315.158 65.8225 323.625 67.8528 328.174C61.2405 331.133 61.9444 320.176 53.6032 324.056C45.9899 327.598 40.1986 334.015 31.4024 328.588C30.321 327.921 29.1356 325.408 31.9989 323.445C39.1325 318.554 49.4127 309.995 50.8017 307.177C53.6431 301.413 78.5025 227.239 78.5025 227.239L99.7331 227.319ZM258.169 204.509C259.979 204.456 262.857 205.114 258.568 208.69C254.279 212.266 249.927 216.22 250.691 218.129C251.455 220.036 255.444 219.327 256.105 222.261C256.546 224.218 250.072 224.536 236.684 223.216L205.623 235.528L198.754 218.38L237.035 213.159C244.692 208.9 251.737 206.017 258.169 204.509Z" fill="#997659"/>
<path fill-rule="evenodd" clip-rule="evenodd" d="M136.655 159.913L153.278 161.02C157.372 198.053 179.67 221.445 229.596 213.526L236.229 261.217C189.566 267.247 148.642 248.567 140.255 197.99C138.084 184.898 136.37 171.272 136.655 159.913Z" fill="#26E5BC"/>
<path d="M128.441 155.065L128.454 155.081L153.64 160.848C153.64 204.161 167.439 231.796 174.516 263.642H106.498C105.541 274.646 104.95 285.956 104.644 297.572H53.7137C65.2549 236.172 89.614 188.67 126.792 155.065H128.441Z" fill="#81F1D9"/>
<path d="M117.689 200.249C116.427 221.491 116.077 247.841 120.321 263.642H106.499C108.449 241.242 111.932 220.111 117.689 200.249Z" fill="black" fill-opacity="0.1"/>
<path fill-rule="evenodd" clip-rule="evenodd" d="M124.1 263.642L160.585 382.905L178.259 484.331H192.116L173.441 263.642H124.1Z" fill="#997659"/>
<path fill-rule="evenodd" clip-rule="evenodd" d="M111.048 263.642C113.527 329.124 110.61 362.901 110.056 368.851C109.501 374.8 101.906 413.376 83.9265 486.328L98.6927 481.258C127.108 414.349 136.791 379.575 140.049 370.789C143.309 362.003 151.964 326.288 166.016 263.642H111.048Z" fill="#B28B67"/>
<path fill-rule="evenodd" clip-rule="evenodd" d="M86.7244 480.101C85.6854 479.644 84.4506 480.106 84.0636 481.174C83.3576 483.119 82.4104 486.038 82.4104 487.684C82.4104 490.306 83.2841 495.336 83.2841 495.336C86.3265 495.336 137.968 495.336 137.968 495.336C137.968 495.336 140.1 488.29 135.507 487.728C130.914 487.167 127.877 486.714 127.877 486.714L102.46 475.384C101.961 475.161 101.377 475.395 101.169 475.9L99.5353 479.863C99.5353 479.863 95.2841 481.847 92.6261 481.847C91.0079 481.847 88.4658 480.867 86.7244 480.101Z" fill="#81F1D9"/>
<path fill-rule="evenodd" clip-rule="evenodd" d="M177.861 480.101C176.822 479.644 175.587 480.106 175.2 481.174C174.494 483.119 173.547 486.038 173.547 487.684C173.547 490.306 174.42 495.336 174.42 495.336C177.463 495.336 229.104 495.336 229.104 495.336C229.104 495.336 231.236 488.29 226.643 487.728C222.05 487.167 219.013 486.714 219.013 486.714L193.597 475.384C193.097 475.161 192.514 475.395 192.305 475.9L190.671 479.863C190.671 479.863 186.42 481.847 183.763 481.847C182.144 481.847 179.602 480.867 177.861 480.101Z" fill="#81F1D9"/>
<path fill-rule="evenodd" clip-rule="evenodd" d="M119.253 263.642L134.765 324.406H182.146L175.082 263.642H119.253Z" fill="#195C4F"/>
<path fill-rule="evenodd" clip-rule="evenodd" d="M110.527 263.642C102.87 286.589 107.618 324.406 107.618 324.406H155.969L169.265 263.642H110.527Z" fill="#1C6758"/>
<path d="M299.853 215.175L249.67 216.02L249.859 219.693L300.042 218.848L299.853 215.175Z" fill="#1C6758"/>
<path d="M297.308 209.091L253.816 209.823L254.13 215.945L297.623 215.213L297.308 209.091Z" fill="white"/>
<path d="M299.349 205.38L249.166 206.224L249.355 209.898L299.538 209.053L299.349 205.38Z" fill="#1C6758"/>
<path d="M253.816 209.823L249.355 209.898L249.671 216.02L254.131 215.944L253.816 209.823Z" fill="#1C6758"/>
<path d="M417.294 95.4857C415.839 74.7395 386.955 79.3032 381.337 89.7742C375.719 100.245 376.386 126.805 383.647 128.677C386.543 129.424 392.712 127.593 398.991 123.808L395.05 151.688H418.319L410.307 114.353C414.775 109.11 417.799 102.685 417.294 95.4857Z" fill="#B28B67"/>
<path d="M405.028 80.3982C401.228 78.8088 397.283 78.6293 393.952 79.5821C387.424 80.142 381.595 82.1329 379.942 83.315C379.942 89.4953 381.139 91.3287 391.368 91.167C393.882 92.4945 395.814 94.7817 397.827 97.7789C397.804 98.095 396.442 116.385 390.759 116.386C385.027 116.386 380.162 112.747 377.647 112.747C375.813 112.748 376.223 115.041 377.438 116.742C378.442 118.146 383.324 119.499 383.324 121.675C383.324 123.85 379.466 122.167 379.466 123.457C379.466 125.592 378.789 129.605 382.493 129.605C386.244 129.605 396.994 128.239 398.837 122.675C400.399 117.955 400.993 104.369 401.138 100.351C401.367 100.324 401.6 100.308 401.837 100.308C405.05 100.309 407.654 102.913 407.654 106.125C407.654 107.756 406.983 109.23 405.902 110.286C407.247 112.186 408.755 114.17 410.484 116.218C416.978 112.322 422.243 100.6 415.895 89.6447C414.14 84.2779 409.721 81.7293 405.028 80.3982Z" fill="black"/>
<path fill-rule="evenodd" clip-rule="evenodd" d="M439.648 263.173L404.498 386.511L378.852 477.417H360.147L387.399 263.173H439.648Z" fill="#195C4F"/>
<path fill-rule="evenodd" clip-rule="evenodd" d="M449.049 263.173C449.861 326.742 452.634 361.415 453.487 367.191C454.342 372.967 467.249 409.708 492.211 477.417H472.833C441.055 412.462 423.316 375.72 419.615 367.191C415.915 358.662 404.494 323.989 387.293 263.173H449.049Z" fill="#1C6758"/>
<path fill-rule="evenodd" clip-rule="evenodd" d="M493.942 494.867L492.973 474.509H472.612C458.132 484.688 434.801 490.989 434.801 490.989V494.867H471.643L484.247 492.928V494.867H493.942Z" fill="black"/>
<path fill-rule="evenodd" clip-rule="evenodd" d="M381.476 494.867L380.507 474.509H360.147C345.666 484.688 322.335 490.989 322.335 490.989V494.867H359.177L371.781 492.928V494.867H381.476Z" fill="black"/>
<path d="M313.239 221.808C313.239 221.808 304.624 213.112 300.84 215.211C298.407 215.426 306.734 222.133 302.664 223.483C298.594 224.835 285.903 223.358 285.146 225.582C284.027 228.871 289.563 233.797 293.69 235.454C301.403 238.55 306.202 238.363 316.761 235.648C325.043 233.519 336.789 234.715 336.789 234.715L330.101 221.449L313.239 221.808ZM339.521 206.379C326.59 203.013 320.189 202.317 320.32 204.29C320.516 207.25 324.537 207.178 324.993 209.155C325.449 211.132 320.569 214.307 315.811 217.121C311.051 219.935 313.774 221.024 315.558 221.254C322.1 220.784 329.456 219.072 337.625 216.116L375.984 216.979L371.891 199.216L339.521 206.379Z" fill="#997659"/>
<path fill-rule="evenodd" clip-rule="evenodd" d="M389.864 186.455C379.495 192.06 364.539 197.502 344.71 196.323L346.07 212.361C361.754 216.793 380.554 217.157 392.8 209.913C402.451 204.204 400.888 189.571 389.864 186.455Z" fill="#26E5BC"/>
<path d="M391.615 134.238C389.498 161.423 382.686 178.87 379.783 204.936C356.508 212.451 320.539 215.175 320.396 215.186C320.401 215.222 322.615 232.452 328.152 240.391C347.57 239.571 364.334 237.687 378.511 234.929C378.666 242.293 379.14 250.352 380.022 259.295C388.922 278.216 434.271 267.098 451.794 270.546C462.766 234.916 441.551 220.434 441.534 197.635C441.515 172.669 421.465 134.238 418.515 134.238H391.615Z" fill="#81F1D9"/>
</svg>
