<svg width="328" height="444" viewBox="0 0 328 444" fill="none" xmlns="http://www.w3.org/2000/svg">
<path fill-rule="evenodd" clip-rule="evenodd" d="M243.11 188.802L274.836 164.691C283.528 162.213 290.768 159.178 296.559 155.587C297.917 154.305 299.537 151.726 293.801 152.246C288.065 152.766 282.006 153.055 281.172 151.106C280.337 149.157 283.764 146.766 282.106 144.143C281 142.395 276.046 146.884 267.245 157.612L235.61 171.284L243.11 188.802Z" fill="#997659"/>
<rect x="283" y="144" width="4" height="5" fill="#1C6758"/>
<rect x="283" y="149" width="45" height="3" fill="#1C6758"/>
<rect x="287" y="144" width="39" height="5" fill="white"/>
<rect x="283" y="141" width="45" height="3" fill="#1C6758"/>
<path d="M142.057 46.0255C143.558 24.6251 173.349 29.3328 179.144 40.1339C184.938 50.9348 184.25 78.3325 176.761 80.2637C173.774 81.0337 167.411 79.1452 160.935 75.2413L165 104H141L149.263 65.4874C144.655 60.0789 141.536 53.4522 142.057 46.0255Z" fill="#B28B67"/>
<path fill-rule="evenodd" clip-rule="evenodd" d="M181.409 44.9836C181.171 43.5836 180.59 42.0288 180.122 40.7043C179.517 38.9967 178.603 37.4571 177.596 36.0061C175.701 33.2744 173.428 30.8075 170.918 28.7601C166.333 25.0202 160.497 22.8631 154.757 23.5636C151.86 23.9173 149.047 25.0226 146.653 26.8624C144.489 28.5246 142.409 30.9715 139.608 31.1474C136.56 31.3385 133.766 28.6485 131.322 26.9871C128.566 25.1141 125.634 23.7493 122.413 23.2188C117.017 22.3304 111.948 24.1534 108.229 28.5805C104.272 33.2916 101.396 40.2003 103.994 46.4425C104.477 47.6028 105.099 48.581 105.991 49.3918C106.809 50.1353 108.058 50.9263 108.39 52.1142C108.742 53.3769 107.69 55.006 107.281 56.1454C106.697 57.7778 106.217 59.4913 106.388 61.2656C106.668 64.1795 108.499 66.9612 110.433 68.8765C112.4 70.8254 114.822 71.943 117.409 72.4582C119.136 72.8022 120.901 72.992 122.657 72.8628C123.528 72.7988 124.297 72.5567 125.141 72.3642C125.962 72.1769 126.421 72.395 127.118 72.8453C130.354 74.9373 133.833 75.7467 137.57 75.4356C140.724 75.173 144.358 74.4087 146.931 72.248C149.788 69.8482 149.731 66.5391 149.059 63.0035C149.771 63.3565 151.742 63.5751 150.564 62.1681C150.098 61.6108 149.216 61.384 148.618 61.0563C147.921 60.6747 147.213 60.1814 146.672 59.5589C144.487 57.0454 146.694 51.93 149.44 51.0871C153.521 49.8347 154.434 55.6055 157.347 57.0982C159.022 57.9565 160.774 56.7834 162.029 55.5855C163.71 53.9809 164.855 51.8551 165.844 49.6918C166.659 47.9103 167.417 46.1038 168.248 44.3311C168.635 43.5033 169.978 41.1632 169.304 40.2272C172.226 39.6444 175.482 40.859 177.999 42.4517C179.039 43.1101 179.832 43.8361 180.387 44.9985C180.506 45.2475 180.765 45.9879 181.09 46.0183C181.695 46.0748 181.469 45.3354 181.409 44.9836Z" fill="black"/>
<path d="M235.436 226.212C241.588 216.24 252.294 219.72 257.952 225.757C266.188 220.809 280.009 227.164 280 234.238C279.971 255.403 260.657 355.151 259.648 361.457C258.639 367.762 247.837 369.428 247.208 361.478C246.207 348.827 244.347 305.033 246.208 284.763C246.993 276.204 247.841 268.062 248.673 260.83C230.841 292.901 201.676 339.801 201.593 339.934L190.077 334.672C190.121 334.525 203.656 289.948 212.323 271.566C222.233 250.55 231.525 232.552 235.436 226.212Z" fill="#B28B67"/>
<path fill-rule="evenodd" clip-rule="evenodd" d="M191.664 329.185C190.971 328.241 189.63 328.017 188.734 328.771C187.099 330.146 184.748 332.264 183.899 333.734C182.547 336.076 180.733 341.021 180.733 341.021C183.45 342.59 229.578 369.222 229.578 369.222C229.578 369.222 235.116 364.027 231.304 361.156C227.491 358.286 225.012 356.315 225.012 356.315L208.152 333.087C207.821 332.631 207.179 332.538 206.733 332.882L203.23 335.579C203.23 335.579 198.409 335.158 196.035 333.788C194.59 332.953 192.824 330.767 191.664 329.185Z" fill="#E4E4E4"/>
<path fill-rule="evenodd" clip-rule="evenodd" d="M247.45 355.284C246.378 354.813 245.104 355.29 244.705 356.391C243.977 358.398 243 361.409 243 363.106C243 365.811 243.901 371 243.901 371C247.039 371 300.303 371 300.303 371C300.303 371 302.502 363.732 297.765 363.152C293.028 362.573 289.895 362.106 289.895 362.106L263.68 350.419C263.165 350.189 262.563 350.43 262.348 350.951L260.663 355.039C260.663 355.039 256.278 357.085 253.537 357.085C251.868 357.085 249.246 356.074 247.45 355.284Z" fill="#E4E4E4"/>
<path fill-rule="evenodd" clip-rule="evenodd" d="M190.9 318.125L230.427 224.487C239.897 209.255 266.446 227.587 263.217 236.422C255.886 256.479 218.6 321.414 216.415 327.39L190.9 318.125Z" fill="#195C4F"/>
<path fill-rule="evenodd" clip-rule="evenodd" d="M282.77 241.433C282.77 268 270.154 329.97 270.146 335.82L243 335.841C243 335.841 248.96 252.898 247.227 252.004C245.493 251.111 176.176 258.925 155.386 258.925C125.408 258.925 113.006 240.02 112 205H171.386C183.478 206.294 246.549 219.015 269.972 223.388C280 225.261 282.77 234.115 282.77 241.433Z" fill="#1C6758"/>
<path fill-rule="evenodd" clip-rule="evenodd" d="M84.651 179.58C84.651 179.58 92.3472 259.907 92.0882 266.531C91.9616 269.768 85.8667 282.147 81.1971 289.749C79.3228 292.8 81.4935 294.67 82.7924 294.846C93.3577 296.27 96.1223 287.793 101.81 281.261C108.042 274.105 111.975 284.726 116.964 279.164C113.142 275.728 105.116 269.741 104.898 263.561C104.752 259.441 104.689 170.748 104.689 170.748L84.651 179.58Z" fill="#B28B67"/>
<path fill-rule="evenodd" clip-rule="evenodd" d="M137.825 113.086L154.681 109.752C168.647 145.559 197.108 162.913 244.734 141.695L264.074 187.443C219.195 205.908 173.436 198.22 151.577 150.065C145.919 137.6 140.573 124.481 137.825 113.086Z" fill="#26E5BC"/>
<path d="M141.477 93L141.49 93.0156L167.468 98.9648C167.468 143.644 181.7 172.15 189 205H118.845C117.857 216.351 117.248 228.018 116.932 240H64.4016C76.3053 176.664 101.43 127.664 139.776 93H141.477Z" fill="#81F1D9"/>
<path d="M130.387 139.608C129.085 161.52 128.725 188.701 133.102 205H118.846C120.857 181.894 124.449 160.097 130.387 139.608Z" fill="black" fill-opacity="0.1"/>
</svg>
