<svg width="495" height="337" viewBox="0 0 495 337" fill="none" xmlns="http://www.w3.org/2000/svg">
<path fill-rule="evenodd" clip-rule="evenodd" d="M107.035 310.512L68.0912 302.069C59.1668 303.495 51.3219 303.805 44.5564 302.997C42.7836 302.41 40.2251 300.757 45.6437 298.804C51.0624 296.852 56.6759 294.553 56.6084 292.434C56.5409 290.315 52.4242 289.596 52.8192 286.518C53.0825 284.466 59.4692 286.441 71.9794 292.444L106.428 291.466L107.035 310.512Z" fill="#997659"/>
<path d="M41.9974 219.95C39.2057 230.368 44.567 241.049 54.1697 245.223C65.5508 251.841 91.9556 263.566 97.4669 260.298L104.973 232.286C104.923 232.27 104.873 232.255 104.824 232.238C106.457 221.548 99.8204 211.114 89.1315 208.25L68.847 202.815C57.3775 199.742 45.5883 206.548 42.515 218.018L41.9974 219.95Z" fill="black"/>
<path fill-rule="evenodd" clip-rule="evenodd" d="M88.7439 231.891C90.8381 239.156 91.0129 245.79 89.4963 248.475C85.6932 255.21 59.0506 248.784 50.1173 240.391C41.1841 231.998 44.3469 202.005 65.4068 206.093C72.716 207.512 78.3115 212.24 82.3433 218.091L121.679 220.077L115.468 243.259L88.7439 231.891Z" fill="#B28B67"/>
<path d="M43.3513 218.76C40.3542 229.946 44.6126 234.872 48.2259 239.062C56.5414 238.88 60.0229 230.464 66.908 224.001C66.4103 222.888 66.2773 221.604 66.6174 220.335C67.4036 217.401 70.4194 215.66 73.3535 216.446C76.2873 217.232 78.0287 220.248 77.2426 223.182C77.2214 223.261 77.1972 223.339 77.1728 223.416C88.3598 227.559 101.576 230.647 105.539 228.297L113.045 200.285C86.346 191.459 92.8049 209.356 67.2735 202.515C66.103 203.209 64.9564 203.854 63.9368 204.523L63.1933 204.291C63.1933 204.291 46.3488 207.575 43.3513 218.76Z" fill="black"/>
<path fill-rule="evenodd" clip-rule="evenodd" d="M190.45 139.494C190.45 139.494 266.963 113.853 272.908 110.922C275.815 109.49 284.645 98.8868 289.69 91.529C291.715 88.5757 294.306 89.7981 294.994 90.9135C300.593 99.9862 293.973 105.96 290.32 113.812C286.317 122.416 297.619 121.689 294.567 128.509C289.874 126.415 281.14 121.518 275.406 123.832C271.583 125.375 190.532 161.392 190.532 161.392L190.45 139.494Z" fill="#B28B67"/>
<path fill-rule="evenodd" clip-rule="evenodd" d="M165.822 196.335L149.557 201.876C155.366 239.868 139.395 269.128 87.5408 274.565L93.6651 323.854C141.765 317.406 177.549 287.869 172.402 235.236C171.069 221.611 169.14 207.577 165.822 196.335Z" fill="#26E5BC"/>
<path d="M141.608 157.387C163.52 156.085 190.701 155.725 207.001 160.102V145.846C183.894 147.857 162.097 151.449 141.608 157.387Z" fill="black" fill-opacity="0.1"/>
<path fill-rule="evenodd" clip-rule="evenodd" d="M206.931 199.474L339.628 214.731L449.593 219.346L452.957 231.903L218.493 242.625L206.931 199.474Z" fill="#997659"/>
<path fill-rule="evenodd" clip-rule="evenodd" d="M204.373 189.927C246.404 178.124 301.202 155.55 303.515 153.669C305.829 151.789 348.605 54.5434 348.605 54.5434L360.177 60.7118C360.177 60.7118 330.418 169.902 324.245 176.24C318.072 182.578 254.304 214.913 217.025 237.145L204.373 189.927Z" fill="#B28B67"/>
<path fill-rule="evenodd" clip-rule="evenodd" d="M347.245 56.3988C346.075 56.3733 345.122 55.4024 345.226 54.2361C345.414 52.1087 345.801 48.9676 346.518 47.4296C347.661 44.9781 350.671 40.6558 350.671 40.6558C353.515 41.9819 401.789 64.4922 401.789 64.4922C401.789 64.4922 400.71 72.0086 396.172 70.532C391.634 69.0554 388.597 68.1546 388.597 68.1546L359.899 67.6675C359.336 67.6579 358.891 67.1851 358.917 66.6223L359.117 62.2056C359.117 62.2056 356.008 58.4981 353.523 57.3395C352.01 56.6341 349.207 56.4416 347.245 56.3988Z" fill="#E4E4E4"/>
<path fill-rule="evenodd" clip-rule="evenodd" d="M426.462 174.815L435.979 236.25L219.613 246.804L205.286 193.335L426.462 174.815Z" fill="#195C4F"/>
<path fill-rule="evenodd" clip-rule="evenodd" d="M336.983 70.8925L393.826 97.6317C393.826 97.6317 342.833 177.605 324.976 193.397C307.119 209.19 218.267 241.78 218.267 241.78L202.137 181.583C202.137 181.583 281.038 155.644 284.348 153.087C287.657 150.53 336.983 70.8925 336.983 70.8925Z" fill="#1C6758"/>
<path d="M105.5 246.411C148.657 234.848 191.813 247.863 225.432 246.412L204.986 170.104C197.818 172.633 191.134 174.833 184.87 176.85C206.66 166.129 230.655 157.428 256.587 149.741L242.991 99.0005C188.246 125.282 148.837 159.61 124.76 201.981C119.988 205.483 115.44 209.57 111 214.5L105.5 246.411Z" fill="#81F1D9"/>
<path fill-rule="evenodd" clip-rule="evenodd" d="M438.862 220.335C437.698 220.208 436.833 219.158 437.038 218.005C437.411 215.902 438.07 212.806 438.919 211.337C440.271 208.994 443.647 204.951 443.647 204.951C446.364 206.52 492.492 233.152 492.492 233.152C492.492 233.152 490.762 240.545 486.37 238.679C481.978 236.812 479.031 235.65 479.031 235.65L450.485 232.664C449.925 232.605 449.523 232.095 449.598 231.537L450.182 227.155C450.182 227.155 447.408 223.19 445.033 221.819C443.588 220.985 440.812 220.549 438.862 220.335Z" fill="#E4E4E4"/>
</svg>
