<svg width="428" height="498" viewBox="0 0 428 498" fill="none" xmlns="http://www.w3.org/2000/svg">
<path fill-rule="evenodd" clip-rule="evenodd" d="M326.683 122.491L362.754 106.212C371.702 105.727 379.376 104.389 385.776 102.197C387.377 101.26 389.524 99.1294 383.871 98.3749C378.218 97.6203 372.306 96.5724 371.941 94.5121C371.577 92.4518 375.425 90.8984 374.418 88.0089C373.746 86.0825 367.951 89.3229 357.031 97.7302L323.41 103.975L326.683 122.491Z" fill="#B28B67"/>
<path d="M204.057 46.0255C205.558 24.6251 235.349 29.3328 241.144 40.1339C246.938 50.9348 246.25 78.3325 238.761 80.2637C235.774 81.0337 229.411 79.1452 222.935 75.2413L227 104H203L211.263 65.4874C206.655 60.0789 203.536 53.4522 204.057 46.0255Z" fill="#B28B67"/>
<path fill-rule="evenodd" clip-rule="evenodd" d="M209.418 70.3075C206.406 56.9065 197.825 47.7714 199.135 41.7817C200.446 35.792 206.121 34.3321 206.121 34.3321C206.121 34.3321 209.057 22.4572 225.056 24.2304C241.055 26.0036 250.819 32.6478 246.602 47.2679C242.726 47.2679 238.046 45.866 231.576 48.2679C228.496 49.411 227.17 55.358 227.17 55.358H224.246C224.246 55.358 219.989 48.3006 215.851 50.1712C211.713 52.0418 213.97 59.2586 213.97 59.2586L212.529 70.3075H209.418Z" fill="black"/>
<path d="M116.32 173.982C116.32 173.982 41.3186 213.605 37.5245 215.217C31.8336 217.636 29.1205 227.274 27.2825 232.073C20.3023 229.408 28.8074 221.931 19.8938 218.678C11.7578 215.709 2.85272 216.165 0.395846 205.791C0.0939398 204.516 1.06251 201.82 4.58255 202.476C13.3526 204.111 27.0936 205.365 30.162 204.323C36.4364 202.192 100.862 158.462 100.894 158.441L116.32 173.982Z" fill="#B28B67"/>
<path fill-rule="evenodd" clip-rule="evenodd" d="M204.932 140.299L207.242 131.836C256.64 139.84 315.965 90.2799 334.095 93.9933C340.744 95.355 341.76 101.071 344.619 99.6966L347.326 113.36C344.509 114.147 346.474 119.545 340.314 126.031C334.155 132.518 256.606 164.395 204.932 140.299Z" fill="#26E5BC"/>
<path d="M201.336 85.0098L228.271 86.8936C230.474 87.0478 232.135 88.9586 231.981 91.1621L231.104 103.71C230.994 165.6 266.882 181.778 258.771 207.049C251.992 228.167 187.111 250.869 175.884 230.168C165.631 211.264 168.014 183.43 175.515 156.664C150.052 167.855 122.123 180.66 106.949 189.321C97.4599 194.738 88.3809 188.028 85.5098 190.899L77.9795 177.627C82.5855 174.432 79.5815 167.629 89.6104 160.229C125.968 133.405 161.622 124.629 187.893 122.485C190.802 115.92 193.845 109.773 196.867 104.253C196.363 103.53 196.094 102.637 196.16 101.689L197.066 88.7207C197.221 86.5171 199.132 84.8557 201.336 85.0098Z" fill="#81F1D9"/>
<path fill-rule="evenodd" clip-rule="evenodd" d="M175.644 230C177.447 254.61 293.607 327.064 294.284 329.096C294.736 330.452 258.128 414.778 258.128 414.778L268.282 418.724C268.282 418.724 324.433 329.416 321.549 319.9C317.419 306.276 231.422 230.262 231.422 230.262L175.644 230Z" fill="#B28B67"/>
<path fill-rule="evenodd" clip-rule="evenodd" d="M260.762 401.869L277.34 407.904C312.298 368.461 326 335.918 323.502 319.336C321.003 302.755 233.686 229.847 233.686 229.847L174.417 229.847C176.439 286.84 284.105 329.1 285.545 331.529C286.985 333.958 272.813 357.744 260.762 401.869Z" fill="#195C4F"/>
<path fill-rule="evenodd" clip-rule="evenodd" d="M257.496 412.683C256.65 411.874 255.29 411.887 254.539 412.785C253.168 414.422 251.22 416.917 250.64 418.511C249.715 421.053 248.787 426.238 248.787 426.238C251.735 427.311 301.787 445.529 301.787 445.529C301.787 445.529 306.339 439.451 302.086 437.286C297.833 435.121 295.049 433.611 295.049 433.611L274.412 413.663C274.007 413.271 273.358 413.291 272.978 413.707L269.997 416.972C269.997 416.972 265.176 417.395 262.6 416.457C261.032 415.886 258.914 414.04 257.496 412.683Z" fill="#E4E4E4"/>
<path fill-rule="evenodd" clip-rule="evenodd" d="M189 230L137.254 354.227L86.3958 459.25H98.3949L229.674 230H189Z" fill="#997659"/>
<path fill-rule="evenodd" clip-rule="evenodd" d="M91 437.433L117.662 442.433C138.277 412.125 224.552 287.852 234.011 230H174.656C143.066 271.821 110.65 406.624 91 437.433Z" fill="#1C6758"/>
<path fill-rule="evenodd" clip-rule="evenodd" d="M91.2592 446.883C90.8348 445.792 89.5967 445.229 88.5361 445.725C86.6015 446.629 83.7821 448.067 82.5821 449.267C80.6695 451.18 77.6373 455.487 77.6373 455.487C79.8561 457.705 117.519 495.369 117.519 495.369C117.519 495.369 124.213 491.784 121.274 488.025C118.334 484.265 116.449 481.72 116.449 481.72L106.176 454.919C105.974 454.393 105.378 454.137 104.858 454.354L100.776 456.053C100.776 456.053 96.2288 454.399 94.2902 452.46C93.11 451.28 91.9703 448.712 91.2592 446.883Z" fill="#E4E4E4"/>
<rect width="51.7673" height="3.79393" transform="matrix(0.981508 0.191423 -0.15743 0.98753 375.597 91.991)" fill="#1C6758"/>
<rect width="44.865" height="6.32321" transform="matrix(0.981508 0.191423 -0.15743 0.98753 381.109 86.6275)" fill="white"/>
<rect width="51.7673" height="3.79393" transform="matrix(0.981508 0.191423 -0.15743 0.98753 377.19 82)" fill="#1C6758"/>
<rect width="4.60154" height="6.32321" transform="matrix(0.981508 0.191423 -0.15743 0.98753 376.593 85.7466)" fill="#1C6758"/>
</svg>
