<svg width="541" height="568" viewBox="0 0 541 568" fill="none" xmlns="http://www.w3.org/2000/svg">
<g clip-path="url(#clip0_0_1)">
<mask id="mask0_0_1" style="mask-type:luminance" maskUnits="userSpaceOnUse" x="0" y="0" width="541" height="568">
<path d="M541 0H0V568H541V0Z" fill="white"/>
</mask>
<g mask="url(#mask0_0_1)">
<path d="M254.109 504.319C372.109 504.319 467.767 499.428 467.767 493.394C467.767 487.36 372.109 482.468 254.109 482.468C136.109 482.468 40.4515 487.36 40.4515 493.394C40.4515 499.428 136.109 504.319 254.109 504.319Z" fill="#F2F2F2"/>
<path d="M378.937 156.976H376.51V90.4838C376.51 80.2773 372.456 70.4888 365.238 63.2717C358.021 56.0545 348.233 52 338.026 52H197.154C186.947 52 177.159 56.0545 169.942 63.2716C162.725 70.4887 158.67 80.2772 158.67 90.4837V455.264C158.67 465.471 162.725 475.259 169.942 482.476C177.159 489.694 186.947 493.748 197.154 493.748H338.026C348.232 493.748 358.021 489.694 365.238 482.476C372.455 475.259 376.51 465.471 376.51 455.264V204.306H378.937V156.976Z" fill="#1C6758"/>
<path d="M368.318 90.7523V454.996C368.318 462.618 365.291 469.929 359.901 475.319C354.511 480.708 347.2 483.737 339.578 483.737H198.03C190.408 483.737 183.097 480.708 177.707 475.319C172.317 469.929 169.29 462.618 169.29 454.996V90.7523C169.29 83.1299 172.317 75.8197 177.707 70.4298C183.097 65.04 190.408 62.0119 198.03 62.0117H215.201C214.357 64.0852 214.036 66.3342 214.266 68.5609C214.495 70.7877 215.269 72.924 216.517 74.7818C217.766 76.6397 219.452 78.1622 221.427 79.2155C223.403 80.2687 225.607 80.8205 227.845 80.8221H308.549C310.788 80.8205 312.991 80.2687 314.967 79.2154C316.942 78.1622 318.628 76.6396 319.877 74.7818C321.126 72.9239 321.899 70.7877 322.128 68.5609C322.358 66.3342 322.037 64.0852 321.192 62.0117H339.578C347.2 62.0119 354.511 65.04 359.901 70.4298C365.291 75.8197 368.318 83.1299 368.318 90.7523Z" fill="white"/>
<path d="M297.51 144.729C285.597 144.727 274.009 148.621 264.514 155.816C255.019 163.012 248.136 173.114 244.915 184.585C241.695 196.055 242.313 208.263 246.676 219.35C251.039 230.436 258.906 239.792 269.08 245.991L269.432 246.198C269.723 246.374 270.015 246.544 270.306 246.708C270.798 246.999 271.289 247.278 271.793 247.545C272.132 247.721 272.472 247.903 272.813 248.073C276.604 250.009 280.612 251.488 284.752 252.48C285.608 252.686 286.463 252.875 287.338 253.032C290.692 253.668 294.097 253.987 297.51 253.985C298.372 253.985 299.229 253.967 300.085 253.925C301.286 253.87 302.476 253.775 303.654 253.639C305.08 253.482 306.488 253.267 307.878 252.996C310.686 252.456 313.445 251.695 316.133 250.72C316.473 250.592 316.812 250.465 317.147 250.337C318.063 249.985 318.964 249.609 319.847 249.208C320.818 248.771 321.776 248.306 322.719 247.812C332.168 242.864 339.978 235.279 345.201 225.979C345.225 225.931 345.256 225.882 345.28 225.834C348.067 220.833 350.044 215.423 351.138 209.803C352.673 201.893 352.44 193.741 350.456 185.931C348.473 178.121 344.786 170.845 339.662 164.627C334.537 158.408 328.1 153.399 320.814 149.96C313.526 146.52 305.569 144.733 297.51 144.729ZM344.285 225.123C344.236 225.208 344.194 225.293 344.145 225.372C339.026 234.535 331.326 241.991 322.003 246.811C321.073 247.296 320.129 247.752 319.168 248.177C318.373 248.535 317.56 248.875 316.74 249.19C316.394 249.324 316.042 249.457 315.69 249.579C313.368 250.427 310.988 251.108 308.57 251.618C306.776 252.001 304.962 252.286 303.137 252.474C302.014 252.595 300.873 252.68 299.726 252.723C298.991 252.753 298.252 252.771 297.51 252.771C294.207 252.776 290.911 252.469 287.666 251.855C285.691 251.491 283.739 251.012 281.82 250.422C278.897 249.519 276.056 248.368 273.329 246.981C273.013 246.817 272.698 246.653 272.387 246.483C271.944 246.246 271.496 246.004 271.058 245.743C270.73 245.56 270.403 245.366 270.081 245.172C269.893 245.063 269.705 244.947 269.516 244.832C260.597 239.355 253.481 231.378 249.053 221.894C244.625 212.408 243.079 201.832 244.608 191.477C246.135 181.121 250.67 171.442 257.649 163.641C264.628 155.839 273.743 150.258 283.865 147.59C293.987 144.922 304.67 145.284 314.587 148.632C324.505 151.98 333.222 158.166 339.656 166.422C346.09 174.679 349.958 184.643 350.782 195.078C351.604 205.514 349.345 215.96 344.285 225.123Z" fill="#1C6758"/>
<path d="M203.086 221.19C202.708 221.189 202.334 221.11 201.989 220.957C201.644 220.804 201.334 220.58 201.079 220.301L170.96 187.443C170.618 187.07 170.203 186.774 169.74 186.57C169.278 186.366 168.778 186.261 168.273 186.261H9.11037C6.69495 186.258 4.3793 185.297 2.67136 183.589C0.96342 181.881 0.00271186 179.566 0 177.151V119.753C0.00271026 117.337 0.96342 115.022 2.67136 113.314C4.3793 111.606 6.69495 110.645 9.11037 110.642H215.317C217.733 110.645 220.049 111.606 221.757 113.314C223.465 115.022 224.425 117.337 224.428 119.753V177.151C224.425 179.566 223.465 181.881 221.757 183.589C220.049 185.297 217.733 186.258 215.317 186.261H209.471C208.505 186.262 207.579 186.646 206.895 187.33C206.212 188.013 205.828 188.939 205.827 189.906V218.454C205.829 219.005 205.664 219.544 205.352 219.999C205.042 220.454 204.599 220.803 204.084 221.001C203.766 221.125 203.428 221.189 203.086 221.19Z" fill="white"/>
<path d="M203.086 221.19C202.708 221.189 202.334 221.11 201.989 220.957C201.644 220.804 201.334 220.58 201.079 220.301L170.96 187.443C170.618 187.07 170.203 186.774 169.74 186.57C169.278 186.366 168.778 186.261 168.273 186.261H9.11037C6.69495 186.258 4.3793 185.297 2.67136 183.589C0.96342 181.881 0.00271186 179.566 0 177.151V119.753C0.00271026 117.337 0.96342 115.022 2.67136 113.314C4.3793 111.606 6.69495 110.645 9.11037 110.642H215.317C217.733 110.645 220.049 111.606 221.757 113.314C223.465 115.022 224.425 117.337 224.428 119.753V177.151C224.425 179.566 223.465 181.881 221.757 183.589C220.049 185.297 217.733 186.258 215.317 186.261H209.471C208.505 186.262 207.579 186.646 206.895 187.33C206.212 188.013 205.828 188.939 205.827 189.906V218.454C205.829 219.005 205.664 219.544 205.352 219.999C205.042 220.454 204.599 220.803 204.084 221.001C203.766 221.125 203.428 221.189 203.086 221.19ZM9.11037 111.856C7.01683 111.859 5.00972 112.691 3.52937 114.172C2.04902 115.652 1.21633 117.659 1.21396 119.753V177.151C1.21633 179.244 2.04903 181.251 3.52938 182.731C5.00973 184.212 7.01683 185.044 9.11037 185.047H168.273C168.946 185.047 169.613 185.188 170.229 185.459C170.845 185.73 171.399 186.127 171.854 186.623L201.974 219.48C202.181 219.706 202.451 219.864 202.749 219.933C203.047 220.002 203.359 219.98 203.644 219.869C203.93 219.758 204.175 219.564 204.347 219.312C204.52 219.059 204.612 218.76 204.613 218.454V189.906C204.614 188.618 205.127 187.382 206.038 186.471C206.948 185.56 208.183 185.048 209.471 185.047H215.317C217.411 185.044 219.418 184.212 220.898 182.731C222.379 181.251 223.212 179.244 223.214 177.151V119.753C223.212 117.659 222.379 115.652 220.898 114.172C219.418 112.691 217.411 111.859 215.317 111.856H9.11037Z" fill="#1C6758"/>
<path d="M22.3467 135.962C26.7495 135.962 30.3186 132.393 30.3186 127.99C30.3186 123.587 26.7495 120.018 22.3467 120.018C17.9439 120.018 14.3747 123.587 14.3747 127.99C14.3747 132.393 17.9439 135.962 22.3467 135.962Z" fill="#26E5BC"/>
<path d="M206.017 172.102H18.411C17.8522 172.102 17.2988 171.992 16.7823 171.779C16.2659 171.566 15.7966 171.253 15.4013 170.858C15.0059 170.463 14.6923 169.994 14.4783 169.478C14.2643 168.962 14.1542 168.409 14.1542 167.85C14.1542 167.291 14.2643 166.738 14.4783 166.222C14.6923 165.705 15.0059 165.237 15.4013 164.842C15.7966 164.446 16.2659 164.134 16.7823 163.92C17.2988 163.707 17.8522 163.597 18.411 163.598H206.017C207.144 163.6 208.224 164.048 209.02 164.845C209.816 165.642 210.263 166.723 210.263 167.85C210.263 168.976 209.816 170.057 209.02 170.854C208.224 171.651 207.144 172.1 206.017 172.102Z" fill="#E6E6E6"/>
<path d="M144.899 154.032H18.411C17.8522 154.032 17.2988 153.923 16.7823 153.71C16.2659 153.496 15.7966 153.183 15.4013 152.788C15.0059 152.394 14.6923 151.924 14.4783 151.408C14.2643 150.892 14.1542 150.339 14.1542 149.78C14.1542 149.222 14.2643 148.668 14.4783 148.152C14.6923 147.635 15.0059 147.167 15.4013 146.772C15.7966 146.377 16.2659 146.064 16.7823 145.85C17.2988 145.637 17.8522 145.528 18.411 145.529H144.899C146.027 145.529 147.108 145.977 147.905 146.774C148.703 147.571 149.151 148.653 149.151 149.78C149.151 150.908 148.703 151.989 147.905 152.786C147.108 153.584 146.027 154.032 144.899 154.032Z" fill="#E6E6E6"/>
<path d="M336.916 415.842C336.401 415.644 335.958 415.295 335.648 414.84C335.336 414.385 335.171 413.846 335.173 413.295V384.747C335.172 383.781 334.788 382.854 334.105 382.171C333.421 381.487 332.495 381.103 331.529 381.102H325.682C323.267 381.099 320.951 380.139 319.243 378.431C317.535 376.723 316.575 374.407 316.572 371.992V314.594C316.575 312.179 317.535 309.863 319.243 308.155C320.951 306.447 323.267 305.486 325.682 305.484H531.89C534.305 305.486 536.621 306.447 538.329 308.155C540.037 309.863 540.997 312.179 541 314.594V371.992C540.997 374.407 540.037 376.723 538.329 378.431C536.621 380.139 534.305 381.099 531.89 381.102H372.727C372.222 381.103 371.722 381.208 371.26 381.411C370.797 381.615 370.382 381.912 370.041 382.284L339.921 415.141C339.667 415.421 339.356 415.645 339.011 415.798C338.666 415.951 338.292 416.03 337.914 416.031C337.572 416.03 337.234 415.966 336.916 415.842Z" fill="white"/>
<path d="M336.916 415.842C336.401 415.644 335.958 415.295 335.648 414.84C335.336 414.385 335.171 413.846 335.173 413.295V384.747C335.172 383.781 334.788 382.854 334.105 382.171C333.421 381.487 332.495 381.103 331.529 381.102H325.682C323.267 381.099 320.951 380.139 319.243 378.431C317.535 376.723 316.575 374.407 316.572 371.992V314.594C316.575 312.179 317.535 309.863 319.243 308.155C320.951 306.447 323.267 305.486 325.682 305.484H531.89C534.305 305.486 536.621 306.447 538.329 308.155C540.037 309.863 540.997 312.179 541 314.594V371.992C540.997 374.407 540.037 376.723 538.329 378.431C536.621 380.139 534.305 381.099 531.89 381.102H372.727C372.222 381.103 371.722 381.208 371.26 381.411C370.797 381.615 370.382 381.912 370.041 382.284L339.921 415.141C339.667 415.421 339.356 415.645 339.011 415.798C338.666 415.951 338.292 416.03 337.914 416.031C337.572 416.03 337.234 415.966 336.916 415.842ZM325.682 306.697C323.589 306.7 321.582 307.533 320.102 309.013C318.621 310.493 317.788 312.5 317.786 314.594V371.992C317.788 374.085 318.621 376.092 320.102 377.572C321.582 379.053 323.589 379.886 325.682 379.888H331.529C332.817 379.889 334.052 380.402 334.962 381.313C335.873 382.224 336.386 383.459 336.387 384.747V413.295C336.388 413.601 336.48 413.9 336.652 414.153C336.825 414.405 337.07 414.599 337.356 414.711C337.641 414.822 337.953 414.843 338.251 414.774C338.549 414.705 338.819 414.547 339.026 414.321L369.146 381.464C369.601 380.968 370.155 380.571 370.771 380.3C371.387 380.029 372.054 379.889 372.727 379.888H531.89C533.983 379.886 535.99 379.053 537.47 377.572C538.951 376.092 539.784 374.085 539.786 371.992V314.594C539.784 312.5 538.951 310.493 537.47 309.013C535.99 307.533 533.983 306.7 531.89 306.697H325.682Z" fill="#1C6758"/>
<path d="M243.489 442.757C230.35 442.753 217.652 438.011 207.726 429.403C197.799 420.794 191.309 408.894 189.446 395.887C187.584 382.88 190.473 369.638 197.585 358.589C204.696 347.54 215.553 339.425 228.163 335.734C240.773 332.042 254.292 333.021 266.239 338.491C278.187 343.96 287.761 353.554 293.207 365.512C298.652 377.47 299.604 390.991 295.887 403.594C292.17 416.197 284.034 427.037 272.971 434.127C264.173 439.768 253.94 442.763 243.489 442.757ZM243.489 334.714C232.923 334.713 222.595 337.845 213.809 343.715C205.023 349.584 198.176 357.927 194.132 367.689C190.088 377.45 189.03 388.191 191.091 398.554C193.152 408.917 198.24 418.436 205.711 425.907C213.182 433.378 222.701 438.466 233.064 440.527C243.426 442.588 254.168 441.529 263.929 437.486C273.691 433.442 282.034 426.594 287.903 417.809C293.773 409.023 296.905 398.694 296.903 388.128C296.888 373.967 291.255 360.391 281.241 350.377C271.227 340.363 257.651 334.73 243.489 334.714Z" fill="#1C6758"/>
<path d="M342.226 330.196C346.629 330.196 350.198 326.627 350.198 322.224C350.198 317.822 346.629 314.253 342.226 314.253C337.823 314.253 334.254 317.822 334.254 322.224C334.254 326.627 337.823 330.196 342.226 330.196Z" fill="#26E5BC"/>
<path d="M525.896 366.336H338.29C337.731 366.337 337.178 366.227 336.662 366.014C336.145 365.8 335.676 365.487 335.28 365.092C334.885 364.697 334.572 364.228 334.358 363.712C334.144 363.196 334.034 362.643 334.034 362.084C334.034 361.525 334.144 360.972 334.358 360.456C334.572 359.94 334.885 359.471 335.28 359.076C335.676 358.681 336.145 358.368 336.662 358.154C337.178 357.941 337.731 357.831 338.29 357.832H525.896C527.024 357.832 528.105 358.28 528.903 359.078C529.7 359.875 530.148 360.956 530.148 362.084C530.148 363.212 529.7 364.293 528.903 365.09C528.105 365.888 527.024 366.336 525.896 366.336Z" fill="#E6E6E6"/>
<path d="M464.778 348.266H338.29C337.731 348.267 337.178 348.157 336.662 347.944C336.145 347.731 335.676 347.418 335.28 347.022C334.885 346.628 334.572 346.159 334.358 345.643C334.144 345.126 334.034 344.573 334.034 344.014C334.034 343.456 334.144 342.902 334.358 342.386C334.572 341.87 334.885 341.401 335.28 341.006C335.676 340.611 336.145 340.298 336.662 340.085C337.178 339.872 337.731 339.762 338.29 339.763H464.778C465.905 339.764 466.985 340.213 467.782 341.01C468.578 341.807 469.025 342.888 469.025 344.014C469.025 345.141 468.578 346.222 467.782 347.019C466.985 347.816 465.905 348.265 464.778 348.266Z" fill="#E6E6E6"/>
<path d="M336.659 421.276C344.873 421.276 351.532 420.537 351.532 419.625C351.532 418.714 344.873 417.974 336.659 417.974C328.444 417.974 321.785 418.714 321.785 419.625C321.785 420.537 328.444 421.276 336.659 421.276Z" fill="#F2F2F2"/>
<path d="M203.73 227.042C211.944 227.042 218.603 226.303 218.603 225.391C218.603 224.479 211.944 223.74 203.73 223.74C195.515 223.74 188.856 224.479 188.856 225.391C188.856 226.303 195.515 227.042 203.73 227.042Z" fill="#F2F2F2"/>
<path d="M221.471 382.34C222.958 361.107 252.475 365.778 258.216 376.494C263.958 387.211 263.275 414.396 255.855 416.311C248.435 418.226 219.983 403.573 221.471 382.34Z" fill="#B28B67"/>
<path d="M234.005 366.899C237.889 365.272 241.921 365.089 245.325 366.063C251.997 366.637 257.955 368.674 259.643 369.884C259.643 376.209 258.419 378.086 247.965 377.921C245.396 379.279 243.422 381.619 241.365 384.687C241.388 384.998 242.778 403.73 248.588 403.731C254.446 403.731 259.417 400.006 261.988 400.006C263.862 400.007 263.443 402.354 262.201 404.096C261.176 405.532 256.186 406.916 256.186 409.143C256.186 411.37 260.129 409.648 260.129 410.969C260.129 413.153 260.821 417.261 257.036 417.261C253.204 417.261 242.216 415.862 240.333 410.167C238.736 405.337 238.13 391.433 237.982 387.32C237.748 387.292 237.51 387.276 237.267 387.276C233.984 387.276 231.323 389.941 231.323 393.229C231.323 394.898 232.009 396.406 233.114 397.487C231.738 399.432 230.196 401.463 228.43 403.558C221.794 399.571 216.274 387.644 222.762 376.432C224.555 370.939 229.21 368.261 234.005 366.899Z" fill="black"/>
<path d="M306.852 200.509C305.941 187.519 287.858 190.377 284.341 196.933C280.824 203.489 281.242 220.119 285.787 221.291C290.334 222.463 307.764 213.499 306.852 200.509Z" fill="#B28B67"/>
<path fill-rule="evenodd" clip-rule="evenodd" d="M290.096 189.793C292.086 189.186 294.976 188.98 296.191 189.119C295.5 187.462 295.225 185.617 295.449 183.819C295.667 182.073 296.447 180.586 297.168 179.028C297.501 178.31 297.878 177.595 298.44 177.046C299.013 176.486 299.738 176.117 300.497 175.941C301.275 175.76 302.088 175.776 302.867 175.939C303.212 176.012 303.521 176.169 303.859 176.257C304.205 176.347 304.373 176.13 304.624 175.912C305.23 175.388 306.117 175.129 306.883 175.036C307.742 174.932 308.634 175.062 309.454 175.344C310.251 175.619 311.017 176.066 311.594 176.716C311.85 177.006 312.084 177.336 312.235 177.699C312.297 177.848 312.308 177.937 312.457 177.992C312.595 178.043 312.755 178.044 312.898 178.092C314.273 178.558 315.449 179.621 316.09 180.985C316.463 181.781 316.64 183.183 316.592 184.753C316.543 186.324 315.125 190.423 313.798 191.918C312.614 193.252 310.873 194.133 309.194 194.518C310.309 195.793 311.05 197.385 311.6 199.005C312.196 200.764 312.565 202.592 312.701 204.454C312.83 206.224 312.842 208.096 312.428 209.827C312.039 211.447 311.21 212.775 309.824 213.618C309.189 214.004 308.507 214.294 307.82 214.559C307.143 214.82 306.464 215.075 305.755 215.221C304.413 215.498 302.867 215.451 301.833 214.383C301.461 213.998 301.051 213.514 300.78 213.044C300.682 212.874 300.623 212.764 300.742 212.599C300.884 212.4 301.114 212.249 301.296 212.094C302.338 211.211 302.984 210.031 303.146 208.63C303.311 207.209 302.929 205.373 301.547 204.753C299.841 203.987 297.962 204.866 296.445 205.686C295.8 203.411 294.477 201.362 292.402 200.319C290.107 199.165 287.472 199.03 285.114 198.039C284.499 197.781 283.873 197.488 283.42 196.962C283.231 196.743 283.009 196.457 282.933 196.167C282.834 195.785 283.081 195.465 283.271 195.167C284.28 193.589 288.105 190.4 290.096 189.793Z" fill="black"/>
</g>
</g>
<defs>
<clipPath id="clip0_0_1">
<rect width="541" height="568" fill="white"/>
</clipPath>
</defs>
</svg>
